<svg width="24" height="24" viewBox="0 0 24 24" fill="none" xmlns="http://www.w3.org/2000/svg">
<path fill-rule="evenodd" clip-rule="evenodd" d="M11.4044 17.312C11.4044 16.5605 11.413 14.5518 11.3934 14.3043C11.4105 11.3152 9.10503 9.20666 7.64854 9.37104C6.64069 9.45349 5.79586 9.84089 5.34252 10.9553C4.922 11.994 5.29798 13.3755 6.69551 13.6996C8.18969 14.0478 9.06247 14.3374 9.69398 14.7461C10.4678 15.2463 11.0994 16.2022 11.1162 17.3132" fill="#0060AF"/>
<path fill-rule="evenodd" clip-rule="evenodd" d="M10.7786 17.3132C10.7835 16.3499 10.2131 15.4981 9.46763 15.0403C8.80637 14.6358 7.91862 14.3701 6.48647 14.0275C6.04377 13.9208 5.58069 13.6836 5.43733 13.3814C5.0581 13.7416 4.98922 14.5514 5.05594 15.0249C5.13348 15.5724 5.81241 16.475 6.83468 16.5104C7.45897 16.534 8.24826 16.3837 8.62676 16.3079C9.27973 16.175 10.3128 16.5605 10.4773 17.312" fill="#0060AF"/>
<path fill-rule="evenodd" clip-rule="evenodd" d="M11.9307 4.71252C10.1972 4.71252 8.70011 5.79008 8.70534 7.65468C8.71075 9.22265 10.0484 10.0621 10.5259 10.6616C11.2472 11.5651 11.6376 12.6345 11.678 14.2708C11.7098 15.5731 11.7081 16.859 11.7152 17.3148H12.0976C12.0911 16.8379 12.0738 15.4728 12.0935 14.2305C12.1195 12.5937 12.5239 11.5651 13.2456 10.6616C13.7272 10.0621 15.0636 9.22265 15.0665 7.65468C15.0732 5.79008 13.5767 4.71252 11.845 4.71252" fill="#0060AF"/>
<path fill-rule="evenodd" clip-rule="evenodd" d="M12.3732 17.312C12.3732 16.5605 12.3642 14.5518 12.3835 14.3043C12.3665 11.3152 14.6706 9.20666 16.1283 9.37104C17.1362 9.45349 17.9799 9.84089 18.4347 10.9553C18.8547 11.994 18.4767 13.3755 17.081 13.6996C15.5857 14.0478 14.7142 14.3374 14.0811 14.7461C13.3082 15.2463 12.7207 16.2022 12.7027 17.3132" fill="#0060AF"/>
<path fill-rule="evenodd" clip-rule="evenodd" d="M12.9961 17.3132C12.9907 16.3499 13.5609 15.4981 14.3042 15.0403C14.9684 14.6358 15.857 14.3701 17.2879 14.0275C17.7315 13.9208 18.194 13.6836 18.3349 13.3814C18.7159 13.7416 18.7848 14.5514 18.7179 15.0249C18.6389 15.5724 17.9616 16.475 16.9411 16.5104C16.3172 16.534 15.5236 16.3837 15.1467 16.3079C14.4963 16.175 13.4603 16.5605 13.2951 17.312" fill="#0060AF"/>
<path fill-rule="evenodd" clip-rule="evenodd" d="M13.5317 20.4232L13.3101 18.8975L13.8454 18.821C13.9756 18.8044 14.1343 18.8258 14.1978 18.9026C14.268 18.983 14.2894 19.0495 14.3029 19.1549C14.3233 19.2854 14.2833 19.436 14.1275 19.5112V19.5158C14.3013 19.5158 14.4064 19.6336 14.4371 19.8325C14.4414 19.8746 14.4548 19.9759 14.4414 20.0606C14.4061 20.262 14.2788 20.327 14.0635 20.3553L13.5317 20.4232ZM13.877 20.1501C13.9405 20.1415 14.0049 20.1382 14.0552 20.108C14.1324 20.0605 14.1253 19.9592 14.1145 19.8838C14.0878 19.7184 14.042 19.6553 13.8557 19.6813L13.7385 19.6983L13.8128 20.1585L13.877 20.1501ZM13.7641 19.4451C13.835 19.4343 13.9309 19.4262 13.9709 19.3628C13.992 19.3204 14.0187 19.2868 14.0011 19.1926C13.9792 19.0811 13.9401 19.0118 13.7895 19.0386L13.6494 19.0599L13.7048 19.4508L13.7641 19.4451Z" fill="#0060AF"/>
<path fill-rule="evenodd" clip-rule="evenodd" d="M15.8501 19.5057C15.8542 19.5341 15.8591 19.5657 15.8609 19.5941C15.9042 19.8722 15.8501 20.1027 15.5183 20.1661C15.0276 20.255 14.9337 19.9679 14.8475 19.5657L14.8015 19.3479C14.7339 18.9633 14.7048 18.6719 15.1831 18.582C15.4526 18.5357 15.6308 18.6369 15.7049 18.8898C15.7165 18.9276 15.7309 18.9648 15.7363 19.0029L15.4429 19.06C15.409 18.9648 15.3641 18.795 15.2321 18.8092C14.9952 18.8363 15.0734 19.114 15.0978 19.2303L15.1859 19.648C15.2124 19.7743 15.2651 19.976 15.4701 19.9371C15.6366 19.9057 15.5639 19.6612 15.5491 19.5609" fill="#0060AF"/>
<path fill-rule="evenodd" clip-rule="evenodd" d="M16.323 19.9673L16.2217 18.3885L16.6157 18.2751L17.4421 19.6482L17.1318 19.7358L16.936 19.3868L16.5913 19.4844L16.6359 19.8811L16.323 19.9673ZM16.5622 19.2294L16.8112 19.1614L16.4805 18.5226L16.5622 19.2294Z" fill="#0060AF"/>
<path fill-rule="evenodd" clip-rule="evenodd" d="M6.58543 18.7735C6.70878 18.4014 6.81914 18.1272 7.28997 18.2489C7.54189 18.3154 7.69805 18.4199 7.69065 18.6958C7.68939 18.7572 7.66793 18.8199 7.65387 18.8804L7.36084 18.8043C7.39925 18.6518 7.42359 18.5309 7.22451 18.4731C6.99441 18.4136 6.93833 18.6768 6.9066 18.7903L6.7874 19.2041C6.74953 19.327 6.70409 19.5301 6.9066 19.5826C7.07394 19.625 7.17528 19.4703 7.23587 19.2442L7.03102 19.1929L7.10189 18.9535L7.5839 19.0995L7.35507 19.8973L7.13327 19.8405L7.18322 19.6719H7.1769C7.07466 19.8099 6.95023 19.8244 6.84114 19.8045C6.35912 19.6817 6.40944 19.3848 6.52448 18.988" fill="#0060AF"/>
<path fill-rule="evenodd" clip-rule="evenodd" d="M8.37865 19.4474L8.23349 20.0964L7.90674 20.0299L8.25495 18.5145L8.81198 18.6329C9.13801 18.6994 9.23647 18.8361 9.1903 19.1179C9.16397 19.2796 9.0794 19.4536 8.87293 19.4395L8.87076 19.437C9.04532 19.4944 9.06011 19.5776 9.02963 19.7209C9.01647 19.7821 8.92576 20.1523 8.98834 20.2121L8.9905 20.2577L8.65239 20.1744C8.63832 20.0719 8.68629 19.8873 8.70522 19.785C8.72416 19.6945 8.75463 19.567 8.65726 19.5193C8.58116 19.4808 8.55267 19.4827 8.46647 19.4642L8.37865 19.4474ZM8.4353 19.2126L8.6553 19.2686C8.78892 19.2869 8.86322 19.2216 8.88954 19.0693C8.91335 18.9298 8.88251 18.8754 8.7626 18.8483L8.52673 18.8031L8.4353 19.2126Z" fill="#0060AF"/>
<path fill-rule="evenodd" clip-rule="evenodd" d="M10.4762 18.8529L10.7993 18.8882L10.6601 19.9537C10.5925 20.2915 10.454 20.439 10.0598 20.393C9.65877 20.345 9.56356 20.173 9.58772 19.8325L9.72802 18.7681L10.0537 18.8031L9.91393 19.8438C9.89897 19.9568 9.87138 20.1242 10.0845 20.1446C10.2737 20.1582 10.3166 20.0399 10.3381 19.893" fill="#0060AF"/>
<path fill-rule="evenodd" clip-rule="evenodd" d="M11.1538 20.4512L11.2512 18.9278L11.8719 18.9531C12.1654 18.9669 12.2421 19.1926 12.2331 19.4082C12.2244 19.5392 12.1811 19.6856 12.0599 19.765C11.9606 19.8325 11.8327 19.8485 11.7144 19.843L11.5121 19.8325L11.4717 20.4709L11.1538 20.4512ZM11.5225 19.6001L11.6869 19.6088C11.8205 19.6134 11.9091 19.5636 11.9206 19.3786C11.9273 19.2011 11.8559 19.1709 11.6828 19.1637L11.5526 19.1595L11.5225 19.6001Z" fill="#0060AF"/>
<path fill-rule="evenodd" clip-rule="evenodd" d="M12.0009 21.8556C9.36579 21.8556 6.65801 21.2438 3.95366 20.0338L3.8873 20.0031L3.85556 19.9393C2.64196 17.5245 2 14.8834 2 12.2992C2 9.71878 2.61563 7.19055 3.82995 4.77893L3.86349 4.71484L3.93112 4.68288C6.43278 3.56572 9.12379 3 11.9324 3C14.5484 3 17.3425 3.62981 20.011 4.82482L20.0793 4.85355L20.1111 4.91883C21.3478 7.37821 22 10.0188 22 12.5603C22 15.0916 21.3737 17.6222 20.1354 20.0801L20.103 20.1445L20.0341 20.1744C17.5705 21.2737 14.7925 21.8556 12.0009 21.8556ZM4.20359 19.7027C6.83058 20.8678 9.4509 21.456 12.0005 21.456C14.704 21.456 17.3925 20.8989 19.786 19.843C20.9748 17.4612 21.5775 15.01 21.5775 12.5603C21.5775 10.1004 20.9485 7.54193 19.7587 5.15478C17.1691 4.00719 14.4645 3.39864 11.932 3.39864C9.21305 3.39864 6.6068 3.94226 4.18086 5.01488C3.01632 7.35222 2.42358 9.80158 2.42358 12.2992C2.42358 14.8013 3.0394 17.361 4.20359 19.7027Z" fill="#0060AF"/>
</svg>
