<svg width="16" height="18" viewBox="0 0 16 18" fill="none" xmlns="http://www.w3.org/2000/svg">
<path fill-rule="evenodd" clip-rule="evenodd" d="M3.52637 4.25C3.52637 3.69772 3.97408 3.25 4.52637 3.25H9.57046C9.77865 3.25 9.94742 3.41877 9.94742 3.62696C9.94742 3.99274 10.4312 4.15407 10.6874 3.89301C10.7247 3.85497 10.7618 3.81846 10.7987 3.78356C10.8905 3.69668 10.9474 3.57771 10.9474 3.45129V3.25C10.9474 2.69772 10.4997 2.25 9.94742 2.25H3.52637C2.97408 2.25 2.52637 2.69772 2.52637 3.25V12.5C2.52637 13.0523 2.97408 13.5 3.52637 13.5H9.94742C10.4997 13.5 10.9474 13.0523 10.9474 12.5C10.9474 12.3311 10.843 12.1799 10.6859 12.1179C10.5675 12.0712 10.4481 12.0231 10.3281 11.9738C10.1472 11.8995 9.94742 12.0316 9.94742 12.2272C9.94742 12.3779 9.82529 12.5 9.67462 12.5H4.52637C3.97408 12.5 3.52637 12.0523 3.52637 11.5V4.25Z" fill="#CECECE"/>
<path fill-rule="evenodd" clip-rule="evenodd" d="M2.52632 0C1.14105 0 0 1.01625 0 2.25V15.75C0 16.9837 1.14105 18 2.52632 18H10.9474C12.3326 18 13.4737 16.9837 13.4737 15.75V12.4874C12.9449 12.5981 12.3715 12.625 11.7895 12.4961V15.75C11.7895 16.1663 11.4147 16.5 10.9474 16.5H2.52632C2.05895 16.5 1.68421 16.1663 1.68421 15.75V2.25C1.68421 1.83375 2.05895 1.5 2.52632 1.5H10.9474C11.4147 1.5 11.7895 1.83375 11.7895 2.25V3.14606C12.3819 3.10071 13.0136 3.14497 13.4737 3.39438V2.25C13.4737 1.01625 12.3326 0 10.9474 0H2.52632ZM6.73684 14.25C6.27368 14.25 5.89474 14.5875 5.89474 15C5.89474 15.4125 6.27368 15.75 6.73684 15.75C7.2 15.75 7.57895 15.4125 7.57895 15C7.57895 14.5875 7.2 14.25 6.73684 14.25Z" fill="#CECECE"/>
<g clip-path="url(#clip0_64_44748)">
<path d="M13.5841 9.98105H9.43064L9.64007 9.77777V9.46054V7.34528V7.31687L9.63792 7.28853C9.60629 6.87173 9.72544 6.45485 9.97911 6.10956C10.2332 5.7637 10.6076 5.51022 11.0408 5.39866L11.5126 5.27716L11.9746 5.39721C12.4078 5.50981 12.7821 5.76388 13.0363 6.11006C13.2901 6.4557 13.4097 6.87278 13.3789 7.29002L13.3769 7.31761V7.34528V9.46261V9.78038L13.5841 9.98105Z" fill="white" stroke="#CECECE" stroke-width="1.5"/>
</g>
<defs>
<clipPath id="clip0_64_44748">
<rect width="7.57895" height="8.25" fill="white" transform="translate(8.4209 3.75)"/>
</clipPath>
</defs>
</svg>
