<svg width="100" height="18" viewBox="0 0 100 18" fill="none" xmlns="http://www.w3.org/2000/svg">
<path d="M1.26242 4.58358C1.47057 4.58088 1.67593 4.63183 1.85892 4.73155C2.04191 4.83127 2.19642 4.97645 2.30771 5.15323C3.18867 4.6701 4.20202 4.48778 5.19506 4.63374C6.1881 4.77971 7.10703 5.24604 7.81338 5.96248C8.43586 5.31916 9.23338 4.87468 10.1061 4.68469C10.9788 4.4947 11.8878 4.56765 12.7195 4.89441C13.5511 5.22116 14.2683 5.7872 14.7813 6.52164C15.2943 7.25608 15.5803 8.12628 15.6034 9.02329V13.1786C15.5932 13.5057 15.4548 13.8156 15.2185 14.0408C14.9821 14.266 14.6669 14.3883 14.3413 14.3812C14.1812 14.3844 14.022 14.3558 13.873 14.297C13.7239 14.2382 13.5879 14.1504 13.4727 14.0387C13.3575 13.927 13.2654 13.7934 13.2017 13.6458C13.138 13.4982 13.1039 13.3394 13.1014 13.1786V9.02406C13.1014 8.48472 12.8882 7.96747 12.5086 7.5861C12.1291 7.20473 11.6144 6.99048 11.0777 6.99048C10.541 6.99048 10.0263 7.20473 9.64675 7.5861C9.26724 7.96747 9.05403 8.48472 9.05403 9.02406V13.1786C9.05153 13.3394 9.01744 13.4982 8.95371 13.6458C8.88999 13.7934 8.79788 13.927 8.68268 14.0387C8.56748 14.1504 8.43145 14.2382 8.2824 14.297C8.13336 14.3558 7.97423 14.3844 7.81415 14.3812C7.48825 14.3887 7.1726 14.2666 6.93591 14.0413C6.69923 13.8161 6.56067 13.506 6.55041 13.1786V9.02406C6.55041 8.48472 6.3372 7.96747 5.95769 7.5861C5.57818 7.20473 5.06346 6.99048 4.52675 6.99048C3.99004 6.99048 3.47531 7.20473 3.0958 7.5861C2.71629 7.96747 2.50308 8.48472 2.50308 9.02406V13.1786C2.50058 13.3394 2.46649 13.4982 2.40276 13.6458C2.33904 13.7934 2.24693 13.927 2.13173 14.0387C2.01653 14.1504 1.8805 14.2382 1.73145 14.297C1.58241 14.3558 1.42328 14.3844 1.26319 14.3812C0.937428 14.3885 0.621974 14.2663 0.385456 14.041C0.148937 13.8158 0.0104891 13.5058 0.000228882 13.1786V5.7878C0.010092 5.46039 0.14826 5.15014 0.384655 4.9246C0.62105 4.69907 0.936532 4.5765 1.26242 4.58358Z" fill="white"/>
<path d="M35.3382 9.48295C35.3463 8.83094 35.4822 8.18691 35.7381 7.58772C35.9941 6.98853 36.3651 6.44595 36.83 5.99101C37.2949 5.53607 37.8444 5.17771 38.4473 4.93643C39.0501 4.69516 39.6944 4.5757 40.3432 4.58489C41.2555 4.58505 42.1507 4.83431 42.933 5.30604C43.0305 5.083 43.1929 4.89479 43.3988 4.76611C43.6047 4.63742 43.8445 4.57426 44.0867 4.58489C44.2468 4.58162 44.4061 4.61017 44.5552 4.6689C44.7043 4.72764 44.8404 4.8154 44.9557 4.92716C45.071 5.03891 45.1632 5.17245 45.227 5.32011C45.2907 5.46776 45.3249 5.62663 45.3273 5.78757V13.1783C45.3249 13.3393 45.2907 13.4981 45.227 13.6458C45.1632 13.7935 45.071 13.927 44.9557 14.0387C44.8404 14.1505 44.7043 14.2383 44.5552 14.297C44.4061 14.3557 44.2468 14.3843 44.0867 14.381C43.8445 14.3916 43.6047 14.3285 43.3988 14.1998C43.1929 14.0711 43.0305 13.8829 42.933 13.6599C42.1507 14.1317 41.2555 14.3809 40.3432 14.381C39.6944 14.3902 39.0501 14.2707 38.4473 14.0295C37.8444 13.7882 37.2949 13.4298 36.83 12.9749C36.3651 12.52 35.9941 11.9774 35.7381 11.3782C35.4822 10.779 35.3463 10.135 35.3382 9.48295ZM37.8403 9.48295C37.8342 9.9791 37.9749 10.4659 38.2446 10.8815C38.5143 11.2972 38.9007 11.623 39.3549 11.8175C39.8091 12.0121 40.3106 12.0667 40.7958 11.9744C41.2809 11.8821 41.7279 11.6471 42.0799 11.2991C42.4319 10.9512 42.6731 10.506 42.7729 10.02C42.8727 9.5341 42.8266 9.02932 42.6404 8.56975C42.4543 8.11017 42.1365 7.71653 41.7273 7.43875C41.3182 7.16098 40.8362 7.0116 40.3424 7.00958C40.0164 7.00662 39.6931 7.06828 39.3908 7.19103C39.0886 7.31378 38.8134 7.4952 38.581 7.72493C38.3486 7.95466 38.1636 8.22817 38.0365 8.52983C37.9094 8.83149 37.8427 9.15538 37.8403 9.48295Z" fill="white"/>
<path d="M47.0246 9.94178V3.00937C47.0349 2.68222 47.1732 2.37237 47.4096 2.14717C47.646 1.92196 47.9612 1.7996 48.2868 1.80669C48.447 1.80341 48.6062 1.83196 48.7553 1.8907C48.9045 1.94943 49.0406 2.0372 49.1559 2.14895C49.2712 2.26071 49.3633 2.39425 49.4271 2.5419C49.4909 2.68956 49.525 2.84842 49.5275 3.00937V4.56296H51.0943C51.2565 4.55714 51.4182 4.58422 51.5698 4.64258C51.7213 4.70095 51.8596 4.7894 51.9764 4.90266C52.0932 5.01591 52.1861 5.15166 52.2496 5.30179C52.313 5.45191 52.3457 5.61335 52.3457 5.77646C52.3457 5.93956 52.313 6.101 52.2496 6.25113C52.1861 6.40126 52.0932 6.537 51.9764 6.65026C51.8596 6.76352 51.7213 6.85197 51.5698 6.91033C51.4182 6.9687 51.2565 6.99578 51.0943 6.98996H49.5275V9.94255C49.5316 10.4784 49.7468 10.9908 50.1261 11.3675C50.5055 11.7442 51.0179 11.9544 51.5512 11.9522H52.4865C52.6502 11.9439 52.8139 11.9691 52.9676 12.0263C53.1213 12.0836 53.2618 12.1716 53.3806 12.2851C53.4994 12.3986 53.594 12.5352 53.6586 12.6866C53.7232 12.8379 53.7566 13.0009 53.7566 13.1657C53.7566 13.3304 53.7232 13.4934 53.6586 13.6448C53.594 13.7961 53.4994 13.9327 53.3806 14.0462C53.2618 14.1597 53.1213 14.2478 52.9676 14.305C52.8139 14.3622 52.6502 14.3875 52.4865 14.3792H51.5512C50.9639 14.3864 50.381 14.2773 49.8358 14.0582C49.2905 13.839 48.7935 13.514 48.3732 13.1018C47.953 12.6896 47.6176 12.1982 47.3863 11.6558C47.1551 11.1133 47.0324 10.5303 47.0254 9.94023" fill="white"/>
<path d="M54.5519 13.1568V9.0232C54.5651 7.82913 55.0489 6.68904 55.8973 5.85288C56.7457 5.01672 57.8894 4.55272 59.0777 4.56262C59.6891 4.5604 60.2948 4.68111 60.8591 4.91765C61.4234 5.1542 61.9349 5.5018 62.3635 5.93998C62.9874 5.29547 63.7869 4.85065 64.6616 4.66145C65.5363 4.47224 66.4471 4.54708 67.2796 4.87657C68.112 5.20606 68.829 5.77548 69.3404 6.51327C69.8518 7.25106 70.1347 8.12429 70.1536 9.0232V13.1561C70.1508 13.3198 70.1159 13.4813 70.0509 13.6314C69.986 13.7816 69.8922 13.9174 69.775 14.0311C69.6578 14.1448 69.5194 14.2342 69.3678 14.2941C69.2162 14.354 69.0543 14.3833 68.8914 14.3804C68.7296 14.383 68.5689 14.3534 68.4187 14.2931C68.2684 14.2327 68.1316 14.143 68.0161 14.0291C67.9007 13.9152 67.8089 13.7793 67.7462 13.6294C67.6835 13.4796 67.651 13.3187 67.6507 13.1561V9.0232C67.6507 8.48386 67.4375 7.96661 67.058 7.58524C66.6785 7.20387 66.1638 6.98962 65.6271 6.98962C65.0904 6.98962 64.5756 7.20387 64.1961 7.58524C63.8166 7.96661 63.6034 8.48386 63.6034 9.0232V13.1561C63.6031 13.3187 63.5707 13.4796 63.5079 13.6294C63.4452 13.7793 63.3535 13.9152 63.238 14.0291C63.1226 14.143 62.9858 14.2327 62.8355 14.2931C62.6852 14.3534 62.5245 14.383 62.3628 14.3804C62.1999 14.3833 62.038 14.354 61.8864 14.2941C61.7348 14.2342 61.5964 14.1448 61.4792 14.0311C61.3619 13.9174 61.2682 13.7816 61.2032 13.6314C61.1382 13.4813 61.1034 13.3198 61.1006 13.1561V9.0232C61.1006 8.48386 60.8874 7.96661 60.5078 7.58524C60.1283 7.20387 59.6136 6.98962 59.0769 6.98962C58.5402 6.98962 58.0255 7.20387 57.646 7.58524C57.2664 7.96661 57.0532 8.48386 57.0532 9.0232V13.1561C57.053 13.3187 57.0205 13.4796 56.9578 13.6294C56.895 13.7793 56.8033 13.9152 56.6878 14.0291C56.5724 14.143 56.4356 14.2327 56.2853 14.2931C56.1351 14.3534 55.9744 14.383 55.8126 14.3804C55.6497 14.3833 55.4878 14.354 55.3362 14.2941C55.1846 14.2342 55.0462 14.1448 54.929 14.0311C54.8118 13.9174 54.718 13.7816 54.653 13.6314C54.5881 13.4813 54.5532 13.3198 54.5504 13.1561" fill="white"/>
<path d="M71.615 5.78703C71.6178 5.62333 71.6527 5.46179 71.7176 5.31165C71.7826 5.16151 71.8764 5.02571 71.9936 4.912C72.1108 4.7983 72.2492 4.70892 72.4008 4.64899C72.5524 4.58906 72.7143 4.55974 72.8772 4.5627C73.039 4.56004 73.1997 4.58972 73.3499 4.65003C73.5002 4.71033 73.637 4.80006 73.7525 4.91398C73.8679 5.02791 73.9597 5.16376 74.0224 5.31364C74.0851 5.46352 74.1176 5.62443 74.1178 5.78703V9.94153C74.1178 10.4809 74.331 10.9981 74.7106 11.3795C75.0901 11.7609 75.6048 11.9751 76.1415 11.9751C76.6782 11.9751 77.1929 11.7609 77.5725 11.3795C77.952 10.9981 78.1652 10.4809 78.1652 9.94153V5.78703C78.168 5.62333 78.2029 5.46179 78.2678 5.31165C78.3328 5.16151 78.4265 5.02571 78.5438 4.912C78.661 4.7983 78.7994 4.70892 78.951 4.64899C79.1026 4.58906 79.2645 4.55974 79.4274 4.5627C79.5891 4.56004 79.7498 4.58972 79.9001 4.65003C80.0504 4.71033 80.1872 4.80006 80.3026 4.91398C80.4181 5.02791 80.5098 5.16376 80.5726 5.31364C80.6353 5.46352 80.6677 5.62443 80.668 5.78703V9.94153C80.6413 11.13 80.1527 12.2608 79.3068 13.0919C78.4609 13.923 77.3249 14.3883 76.1419 14.3883C74.9589 14.3883 73.8229 13.923 72.977 13.0919C72.1311 12.2608 71.6425 11.13 71.6158 9.94153L71.615 5.78703Z" fill="white"/>
<path d="M81.8201 9.48306C81.8482 8.17082 82.3866 6.92183 83.3201 6.00375C84.2535 5.08566 85.5077 4.57153 86.8139 4.57153C88.12 4.57153 89.3742 5.08566 90.3077 6.00375C91.2411 6.92183 91.7796 8.17082 91.8077 9.48306V13.1568C91.8074 13.3194 91.7749 13.4803 91.7122 13.6302C91.6495 13.7801 91.5577 13.9159 91.4423 14.0298C91.3268 14.1438 91.19 14.2335 91.0397 14.2938C90.8895 14.3541 90.7288 14.3838 90.567 14.3811C90.3255 14.3871 90.0876 14.322 89.8826 14.1937C89.6776 14.0654 89.5144 13.8796 89.4132 13.6592C88.6299 14.1286 87.7355 14.3779 86.8235 14.3811C85.5142 14.396 84.2523 13.8889 83.3143 12.9709C82.3762 12.0529 81.8384 10.7987 81.8185 9.48306H81.8201ZM86.8235 11.9564C87.3109 11.95 87.7855 11.7988 88.1876 11.5219C88.5896 11.2449 88.9012 10.8546 89.0829 10.4001C89.2646 9.94555 89.3084 9.44715 89.2088 8.96765C89.1092 8.48814 88.8707 8.04898 88.5232 7.70547C88.1757 7.36195 87.7348 7.12946 87.256 7.03726C86.7773 6.94506 86.2821 6.99728 85.8329 7.18734C85.3836 7.37741 85.0004 7.69681 84.7314 8.10534C84.4624 8.51386 84.3198 8.99323 84.3214 9.48306C84.3287 10.1439 84.596 10.7749 85.0648 11.2384C85.5336 11.7018 86.1659 11.96 86.8235 11.9564Z" fill="white"/>
<path d="M93.2673 9.94178V3.00937C93.2776 2.68222 93.4159 2.37237 93.6523 2.14717C93.8886 1.92196 94.2039 1.7996 94.5295 1.80669C94.6897 1.80341 94.8489 1.83196 94.998 1.8907C95.1472 1.94943 95.2833 2.0372 95.3986 2.14895C95.5138 2.26071 95.606 2.39425 95.6698 2.5419C95.7336 2.68956 95.7677 2.84842 95.7702 3.00937V4.56296H97.337C97.4992 4.55714 97.6609 4.58422 97.8125 4.64258C97.964 4.70095 98.1023 4.7894 98.2191 4.90266C98.3359 5.01591 98.4288 5.15166 98.4923 5.30179C98.5557 5.45191 98.5884 5.61335 98.5884 5.77646C98.5884 5.93956 98.5557 6.101 98.4923 6.25113C98.4288 6.40126 98.3359 6.537 98.2191 6.65026C98.1023 6.76352 97.964 6.85197 97.8125 6.91033C97.6609 6.9687 97.4992 6.99578 97.337 6.98996H95.7702V9.94255C95.7743 10.4784 95.9895 10.9908 96.3688 11.3675C96.7482 11.7442 97.2606 11.9544 97.7939 11.9522H98.7299C98.8936 11.9439 99.0573 11.9691 99.211 12.0263C99.3647 12.0836 99.5053 12.1716 99.624 12.2851C99.7428 12.3986 99.8374 12.5352 99.9021 12.6866C99.9667 12.8379 100 13.0009 100 13.1657C100 13.3304 99.9667 13.4934 99.9021 13.6448C99.8374 13.7961 99.7428 13.9327 99.624 14.0462C99.5053 14.1597 99.3647 14.2478 99.211 14.305C99.0573 14.3622 98.8936 14.3875 98.7299 14.3792H97.7939C97.2066 14.3864 96.6237 14.2773 96.0784 14.0582C95.5332 13.839 95.0362 13.514 94.6159 13.1018C94.1957 12.6896 93.8603 12.1982 93.629 11.6558C93.3978 11.1133 93.2751 10.5303 93.2681 9.94023" fill="white"/>
<path d="M50.834 4.58545H44.02V6.97612H50.834V4.58545Z" fill="white"/>
<path d="M20.9416 8.70646C20.9444 8.54276 20.9793 8.38123 21.0442 8.23109C21.1092 8.08094 21.203 7.94514 21.3202 7.83143C21.4374 7.71773 21.5758 7.62836 21.7274 7.56842C21.879 7.50849 22.0409 7.47917 22.2038 7.48214C22.3656 7.47947 22.5263 7.50916 22.6765 7.56946C22.8268 7.62977 22.9636 7.71949 23.0791 7.83342C23.1945 7.94734 23.2863 8.08319 23.349 8.23307C23.4117 8.38295 23.4442 8.54387 23.4445 8.70646V9.94315C23.4445 10.4825 23.6577 10.9997 24.0372 11.3811C24.4167 11.7625 24.9314 11.9767 25.4681 11.9767C26.0048 11.9767 26.5196 11.7625 26.8991 11.3811C27.2786 10.9997 27.4918 10.4825 27.4918 9.94315V8.70646C27.4946 8.54276 27.5295 8.38123 27.5944 8.23109C27.6594 8.08094 27.7532 7.94514 27.8704 7.83143C27.9876 7.71773 28.126 7.62836 28.2776 7.56842C28.4292 7.50849 28.5911 7.47917 28.754 7.48214C28.9157 7.47958 29.0763 7.50934 29.2265 7.56969C29.3767 7.63004 29.5134 7.71978 29.6288 7.8337C29.7441 7.94761 29.8358 8.08343 29.8985 8.23325C29.9612 8.38308 29.9936 8.54393 29.9939 8.70646V9.94315C29.9672 11.1317 29.4786 12.2624 28.6327 13.0935C27.7868 13.9246 26.6508 14.3899 25.4677 14.3899C24.2847 14.3899 23.1487 13.9246 22.3028 13.0935C21.4569 12.2624 20.9683 11.1317 20.9416 9.94315V8.70646Z" fill="#C22716"/>
<path d="M23.4647 5.64842C23.4647 5.89898 23.3908 6.14391 23.2523 6.35224C23.1138 6.56057 22.9169 6.72294 22.6865 6.81882C22.4562 6.91471 22.2027 6.9398 21.9581 6.89092C21.7136 6.84203 21.489 6.72138 21.3127 6.54421C21.1364 6.36704 21.0163 6.14131 20.9676 5.89557C20.919 5.64983 20.944 5.39511 21.0394 5.16363C21.1348 4.93214 21.2964 4.73429 21.5037 4.59509C21.711 4.45589 21.9547 4.38159 22.2041 4.38159C22.5384 4.38159 22.8591 4.51506 23.0955 4.75264C23.3319 4.99022 23.4647 5.31244 23.4647 5.64842Z" fill="#C22716"/>
<path d="M29.9963 5.64842C29.9963 5.89898 29.9224 6.14391 29.7839 6.35224C29.6454 6.56057 29.4485 6.72294 29.2181 6.81882C28.9878 6.91471 28.7343 6.9398 28.4897 6.89092C28.2452 6.84203 28.0206 6.72138 27.8443 6.54421C27.668 6.36704 27.5479 6.14131 27.4992 5.89557C27.4506 5.64983 27.4756 5.39511 27.571 5.16363C27.6664 4.93214 27.828 4.73429 28.0353 4.59509C28.2426 4.45589 28.4863 4.38159 28.7357 4.38159C29.07 4.38159 29.3907 4.51506 29.6271 4.75264C29.8635 4.99022 29.9963 5.31244 29.9963 5.64842Z" fill="#C22716"/>
<path d="M34.4253 9C34.4253 10.7801 33.9001 12.5202 32.9159 14.0002C31.9318 15.4803 30.533 16.6338 28.8964 17.315C27.2598 17.9962 25.459 18.1743 23.7217 17.827C21.9843 17.4797 20.3885 16.6224 19.136 15.3637C17.8835 14.1049 17.0306 12.5012 16.6851 10.7553C16.3396 9.00946 16.5171 7.19983 17.1951 5.55531C17.873 3.91079 19.0211 2.50524 20.494 1.5164C21.967 0.527558 23.6986 -0.000152841 25.47 3.32054e-08C26.6461 3.32054e-08 27.8107 0.232792 28.8974 0.685084C29.984 1.13738 30.9713 1.80031 31.8029 2.63604C32.6346 3.47177 33.2943 4.46392 33.7444 5.55585C34.1945 6.64778 34.4261 7.8181 34.4261 9" fill="#FFC217"/>
<path d="M20.9418 8.70646C20.9446 8.54276 20.9795 8.38123 21.0445 8.23109C21.1094 8.08094 21.2032 7.94514 21.3204 7.83143C21.4376 7.71773 21.576 7.62836 21.7276 7.56842C21.8792 7.50849 22.0411 7.47917 22.204 7.48214C22.3658 7.47947 22.5265 7.50916 22.6767 7.56946C22.827 7.62977 22.9638 7.71949 23.0793 7.83342C23.1947 7.94734 23.2865 8.08319 23.3492 8.23307C23.4119 8.38295 23.4444 8.54387 23.4447 8.70646V9.94315C23.4447 10.4825 23.6579 10.9997 24.0374 11.3811C24.4169 11.7625 24.9316 11.9767 25.4683 11.9767C26.005 11.9767 26.5198 11.7625 26.8993 11.3811C27.2788 10.9997 27.492 10.4825 27.492 9.94315V8.70646C27.4948 8.54276 27.5297 8.38123 27.5946 8.23109C27.6596 8.08094 27.7534 7.94514 27.8706 7.83143C27.9878 7.71773 28.1262 7.62836 28.2778 7.56842C28.4294 7.50849 28.5913 7.47917 28.7542 7.48214C28.9159 7.47958 29.0765 7.50934 29.2267 7.56969C29.3769 7.63004 29.5136 7.71978 29.629 7.8337C29.7443 7.94761 29.836 8.08343 29.8987 8.23325C29.9614 8.38308 29.9938 8.54393 29.9941 8.70646V9.94315C29.9674 11.1317 29.4788 12.2624 28.6329 13.0935C27.787 13.9246 26.651 14.3899 25.468 14.3899C24.2849 14.3899 23.1489 13.9246 22.303 13.0935C21.4571 12.2624 20.9685 11.1317 20.9418 9.94315V8.70646Z" fill="#C22716"/>
<path d="M23.4649 5.64842C23.4649 5.89898 23.391 6.14391 23.2525 6.35224C23.114 6.56057 22.9171 6.72294 22.6867 6.81882C22.4564 6.91471 22.2029 6.9398 21.9583 6.89092C21.7138 6.84203 21.4892 6.72138 21.3129 6.54421C21.1366 6.36704 21.0165 6.14131 20.9679 5.89557C20.9192 5.64983 20.9442 5.39511 21.0396 5.16363C21.135 4.93214 21.2966 4.73429 21.5039 4.59509C21.7112 4.45589 21.955 4.38159 22.2043 4.38159C22.5386 4.38159 22.8593 4.51506 23.0957 4.75264C23.3321 4.99022 23.4649 5.31244 23.4649 5.64842Z" fill="#C22716"/>
<path d="M29.9962 5.64842C29.9962 5.89898 29.9222 6.14391 29.7837 6.35224C29.6452 6.56057 29.4483 6.72294 29.218 6.81882C28.9876 6.91471 28.7341 6.9398 28.4896 6.89092C28.245 6.84203 28.0204 6.72138 27.8441 6.54421C27.6678 6.36704 27.5477 6.14131 27.4991 5.89557C27.4504 5.64983 27.4754 5.39511 27.5708 5.16363C27.6663 4.93214 27.8278 4.73429 28.0351 4.59509C28.2425 4.45589 28.4862 4.38159 28.7355 4.38159C29.0699 4.38159 29.3905 4.51506 29.627 4.75264C29.8634 4.99022 29.9962 5.31244 29.9962 5.64842Z" fill="#C22716"/>
</svg>
