<svg width="20" height="18" viewBox="0 0 20 18" fill="none" xmlns="http://www.w3.org/2000/svg">
<path d="M2.02327 0.75H17.9394C17.9575 0.751561 17.9756 0.752478 17.9939 0.752731C18.3248 0.757315 18.6431 0.894003 18.8791 1.1371C19.1155 1.38059 19.25 1.71129 19.25 2.0582V2.05827V11.3835C19.25 11.7336 19.113 12.0669 18.8729 12.3109C18.6332 12.5544 18.3106 12.689 17.9767 12.689H9.87263C9.60336 12.689 9.35475 12.8334 9.22127 13.0672L6.87152 17.1837L6.87148 17.1837L6.86736 17.1911C6.85637 17.2109 6.84124 17.2259 6.82474 17.2356C6.80835 17.2454 6.79065 17.25 6.77335 17.25C6.75605 17.25 6.73835 17.2454 6.72195 17.2356C6.70545 17.2259 6.69033 17.2109 6.67933 17.1911L6.67936 17.1911L6.67604 17.1853L4.33641 13.0641C4.20317 12.8294 3.95408 12.6843 3.68419 12.6843H2.02327C1.68943 12.6843 1.36683 12.5497 1.1271 12.3062C0.886977 12.0622 0.75 11.7289 0.75 11.3789V2.05547C0.75 1.70545 0.886977 1.3721 1.1271 1.12816C1.36683 0.884615 1.68943 0.75 2.02327 0.75Z" stroke="#555555" stroke-width="1.5" stroke-linecap="round" stroke-linejoin="round"/>
<path d="M4 5H10" stroke="#555555" stroke-width="1.5" stroke-linecap="round" stroke-linejoin="round"/>
<path d="M4 9L15 9" stroke="#555555" stroke-width="1.5" stroke-linecap="round" stroke-linejoin="round"/>
</svg>
