<svg width="17" height="16" viewBox="0 0 17 16" fill="none" xmlns="http://www.w3.org/2000/svg">
<g clip-path="url(#clip0_5227_15460)">
<path d="M3.18185 2.75H13.7829C13.797 2.751 13.8112 2.7516 13.8255 2.7518C13.9791 2.75392 14.1282 2.81734 14.2397 2.93222C14.3516 3.04748 14.4164 3.20531 14.4163 3.37211V3.37218V9.58903C14.4163 9.75733 14.3504 9.9164 14.2368 10.0319C14.1235 10.1469 13.9725 10.2093 13.8175 10.2093H8.41476C8.14549 10.2093 7.89689 10.3537 7.7634 10.5875L6.34899 13.0655L4.94136 10.586C4.80811 10.3512 4.55903 10.2062 4.28913 10.2062H3.18185C3.02688 10.2062 2.87583 10.1438 2.76258 10.0287C2.64893 9.91329 2.58301 9.75422 2.58301 9.58592V3.37031C2.58301 3.20201 2.64893 3.04294 2.76258 2.92748C2.87583 2.81243 3.02688 2.75 3.18185 2.75Z" stroke="#176CF7" stroke-width="1.5" stroke-linecap="round" stroke-linejoin="round"/>
<path d="M4.5 5.33331H8.5" stroke="#176CF7" stroke-width="1.5" stroke-linecap="round" stroke-linejoin="round"/>
<path d="M4.5 8L11.8333 8" stroke="#176CF7" stroke-width="1.5" stroke-linecap="round" stroke-linejoin="round"/>
</g>
<defs>
<clipPath id="clip0_5227_15460">
<rect width="16" height="16" fill="white" transform="translate(0.5)"/>
</clipPath>
</defs>
</svg>
