<svg width="16" height="18" viewBox="0 0 16 18" fill="none" xmlns="http://www.w3.org/2000/svg">
<g id="Group 40566">
<path id="Path 18" d="M14.7502 7.96377V15.8972C14.7502 16.0581 14.6813 16.2266 14.5348 16.3612C14.3862 16.4978 14.1721 16.5843 13.937 16.5843H4.55772C4.32264 16.5843 4.10856 16.4978 3.95996 16.3612C3.81347 16.2266 3.74451 16.0581 3.74451 15.8972V4.40021C3.74451 4.2393 3.81347 4.07081 3.95996 3.93614C4.10856 3.79952 4.32264 3.71309 4.55772 3.71309H11.4768C11.4913 3.71354 11.5032 3.71705 11.5112 3.72094C11.5152 3.7229 11.5174 3.72453 11.5183 3.72525L11.5195 3.72683L14.7502 7.96377Z" stroke="#555555" stroke-width="1.5" stroke-linecap="round" stroke-linejoin="bevel"/>
<g id="Group 40796">
<path id="Subtract" fill-rule="evenodd" clip-rule="evenodd" d="M2.37618 0.541672C1.83018 0.541672 1.31662 0.772764 0.945506 1.16744C0.575863 1.56055 0.37561 2.08438 0.37561 2.62164V13.2614C0.37561 13.7986 0.575863 14.3224 0.945506 14.7156C1.31662 15.1102 1.83018 15.3413 2.37618 15.3413H3.69935C3.65187 15.2078 3.62702 15.0668 3.62702 14.9235V13.8413H2.37618C2.25884 13.8413 2.13622 13.7922 2.03828 13.688C1.93887 13.5823 1.87561 13.4296 1.87561 13.2614V2.62164C1.87561 2.45343 1.93887 2.3007 2.03828 2.19498C2.13622 2.09082 2.25884 2.04167 2.37618 2.04167H7.8303L8.43156 2.95381H10.2281L9.05089 1.1679L9.04969 1.16607C8.92918 0.981915 8.7661 0.826405 8.57081 0.716154C8.37458 0.605371 8.15319 0.544561 7.92554 0.54173L7.92554 0.541672H7.91621H2.37618Z" fill="#555555"/>
</g>
</g>
</svg>
