<svg width="16" height="18" viewBox="0 0 16 18" fill="none" xmlns="http://www.w3.org/2000/svg">
<path d="M14.7502 7.96382V15.8972C14.7502 16.0581 14.6813 16.2266 14.5348 16.3613C14.3862 16.4979 14.1721 16.5843 13.937 16.5843H4.55772C4.32264 16.5843 4.10856 16.4979 3.95996 16.3613C3.81347 16.2266 3.74451 16.0581 3.74451 15.8972V4.40025C3.74451 4.23935 3.81347 4.07086 3.95996 3.93619C4.10856 3.79957 4.32264 3.71313 4.55772 3.71313H11.4768C11.4913 3.71359 11.5032 3.7171 11.5112 3.72099C11.5152 3.72295 11.5174 3.72458 11.5183 3.72529L11.5195 3.72688L14.7502 7.96382Z" stroke="#176CF7" stroke-width="1.5" stroke-linecap="round" stroke-linejoin="bevel"/>
<path fill-rule="evenodd" clip-rule="evenodd" d="M2.37618 0.541687C1.83018 0.541687 1.31662 0.772779 0.945506 1.16745C0.575863 1.56056 0.37561 2.0844 0.37561 2.62165V13.2614C0.37561 13.7986 0.575863 14.3225 0.945506 14.7156C1.31662 15.1102 1.83018 15.3413 2.37618 15.3413H3.69935C3.65187 15.2078 3.62702 15.0668 3.62702 14.9235V13.8413H2.37618C2.25884 13.8413 2.13622 13.7922 2.03828 13.688C1.93887 13.5823 1.87561 13.4296 1.87561 13.2614V2.62165C1.87561 2.45345 1.93887 2.30072 2.03828 2.195C2.13622 2.09084 2.25884 2.04169 2.37618 2.04169H7.8303L8.43156 2.95383H10.2281L9.05089 1.16792L9.04969 1.16608C8.92918 0.981931 8.7661 0.826421 8.57081 0.71617C8.37458 0.605386 8.15319 0.544576 7.92554 0.541745L7.92554 0.541687H7.91621H2.37618Z" fill="#176CF7"/>
</svg>
