<svg width="14" height="14" viewBox="0 0 14 14" fill="none" xmlns="http://www.w3.org/2000/svg">
<path d="M8.29621 3.75947C9.01208 3.75947 9.59241 3.17914 9.59241 2.46327C9.59241 1.74739 9.01208 1.16706 8.29621 1.16706C7.58033 1.16706 7 1.74739 7 2.46327C7 3.17914 7.58033 3.75947 8.29621 3.75947Z" stroke="#176CF7" stroke-linecap="round" stroke-linejoin="round"/>
<path d="M8.94464 12.833C9.66052 12.833 10.2409 12.2527 10.2409 11.5368C10.2409 10.8209 9.66052 10.2406 8.94464 10.2406C8.22877 10.2406 7.64844 10.8209 7.64844 11.5368C7.64844 12.2527 8.22877 12.833 8.94464 12.833Z" stroke="#176CF7" stroke-linecap="round" stroke-linejoin="round"/>
<path d="M4.40753 8.29613C5.12341 8.29613 5.70374 7.7158 5.70374 6.99993C5.70374 6.28405 5.12341 5.70372 4.40753 5.70372C3.69166 5.70372 3.11133 6.28405 3.11133 6.99993C3.11133 7.7158 3.69166 8.29613 4.40753 8.29613Z" stroke="#176CF7" stroke-linecap="round" stroke-linejoin="round"/>
<path d="M1.16699 2.46333H6.99992" stroke="#176CF7" stroke-linecap="round" stroke-linejoin="round"/>
<path d="M9.59277 2.46333H12.8333" stroke="#176CF7" stroke-linecap="round" stroke-linejoin="round"/>
<path d="M1.16699 6.99999H3.1113" stroke="#176CF7" stroke-linecap="round" stroke-linejoin="round"/>
<path d="M5.7041 6.99999H12.8332" stroke="#176CF7" stroke-linecap="round" stroke-linejoin="round"/>
<path d="M1.16699 11.5367H7.64802" stroke="#176CF7" stroke-linecap="round" stroke-linejoin="round"/>
<path d="M10.2402 11.5367H12.8326" stroke="#176CF7" stroke-linecap="round" stroke-linejoin="round"/>
</svg>
