<svg width="16" height="14" viewBox="0 0 16 14" fill="none" xmlns="http://www.w3.org/2000/svg">
<path d="M8.35615 1.75315L8.36571 1.7432C9.84543 0.208158 12.2367 0.208158 13.7164 1.7432C15.2061 3.28856 15.2061 5.80142 13.7164 7.34678L13.7068 7.35671L13.7056 7.35797L8.58499 12.67C8.25694 13.0103 7.73294 13.0103 7.40489 12.67L2.29066 7.3646L2.2903 7.36423L2.28425 7.35796C2.28415 7.35786 2.28405 7.35777 2.28396 7.35767C2.28394 7.35764 2.28391 7.35762 2.28389 7.3576C0.794574 5.81221 0.794692 3.29962 2.28425 1.75439C3.76397 0.219346 6.15525 0.219361 7.63498 1.75441L7.99622 2.12916L8.35615 1.75315Z" fill="#EE4343" stroke="#EE4343"/>
</svg>
