<svg width="16" height="16" viewBox="0 0 16 16" fill="none" xmlns="http://www.w3.org/2000/svg">
<g clip-path="url(#clip0_5001_463696)">
<path fill-rule="evenodd" clip-rule="evenodd" d="M9.80664 2H4.52584C4.20955 2 3.90621 2.12549 3.68255 2.34887C3.4589 2.57225 3.33325 2.87521 3.33325 3.19112V12.72C3.33325 13.0359 3.4589 13.3389 3.68255 13.5623C3.90621 13.7857 4.20955 13.9112 4.52584 13.9112H11.6814C11.9977 13.9112 12.301 13.7857 12.5247 13.5623C12.7483 13.3389 12.874 13.0359 12.874 12.72V6.12066C12.874 5.99835 12.8363 5.87899 12.7661 5.77881L10.295 2.25371C10.24 2.17534 10.1669 2.11136 10.0819 2.0672C9.99688 2.02304 9.90247 1.99999 9.80664 2Z" stroke="#176CF7" stroke-width="1.5" stroke-linecap="round" stroke-linejoin="bevel"/>
<path d="M5.40759 4.60828H9.03722" stroke="#176CF7" stroke-width="1.5" stroke-linecap="round"/>
<path d="M5.40759 6.67743H10.5928" stroke="#176CF7" stroke-width="1.5" stroke-linecap="round"/>
<path d="M5.40759 8.75128H10.5928" stroke="#176CF7" stroke-width="1.5" stroke-linecap="round"/>
<path d="M5.40759 10.6241H10.5928" stroke="#176CF7" stroke-width="1.5" stroke-linecap="round"/>
</g>
<defs>
<clipPath id="clip0_5001_463696">
<rect width="10.6667" height="13.3333" fill="white" transform="translate(2.66663 1.33331)"/>
</clipPath>
</defs>
</svg>
