<svg width="20" height="20" viewBox="0 0 20 20" fill="none" xmlns="http://www.w3.org/2000/svg">
<path d="M9.87265 17.5C8.55612 16.0946 7.39985 14.5588 6.42348 12.9185C5.59028 11.6766 5.01715 10.2913 4.73598 8.83987C4.5172 7.98378 4.5341 7.08796 4.78505 6.24C5.03599 5.39204 5.51238 4.62096 6.16765 4.00217C7.16307 3.06416 8.4958 2.52697 9.89195 2.50099C11.2881 2.47501 12.6416 2.96222 13.6743 3.86249C14.667 4.72641 15.2817 5.91799 15.3951 7.19804C15.3981 7.20118 15.4003 7.20484 15.4017 7.20881C15.4032 7.21279 15.4038 7.21699 15.4035 7.22118C15.4035 7.23635 15.4035 7.25151 15.4035 7.26748C15.4118 7.3888 15.4168 7.50693 15.4168 7.62905V7.65539C15.4168 7.75276 15.4168 7.84774 15.4068 7.94512C15.373 8.47327 15.253 8.99308 15.051 9.48559C14.7744 10.2744 14.4505 11.0472 14.081 11.8003C13.3553 13.2869 12.4391 14.6811 11.3535 15.9508C10.8957 16.4973 10.401 17.0154 9.87265 17.5ZM10.001 5.38539C9.60472 5.38965 9.21864 5.50609 8.89132 5.72006C8.56401 5.93403 8.3101 6.23596 8.16157 6.58785C8.01303 6.93974 7.9765 7.32585 8.05658 7.69758C8.13667 8.06931 8.32978 8.41004 8.6116 8.67688C8.89343 8.94371 9.25138 9.12472 9.64039 9.19713C10.0294 9.26953 10.4321 9.23008 10.7977 9.08376C11.1634 8.93743 11.4757 8.69077 11.6953 8.37481C11.9149 8.05886 12.032 7.68774 12.0318 7.30818C12.0281 6.79546 11.8122 6.30509 11.4314 5.94463C11.0507 5.58417 10.5363 5.38306 10.001 5.38539Z" stroke="#555555" stroke-width="1.25"/>
</svg>
