<svg width="21" height="20" viewBox="0 0 21 20" fill="none" xmlns="http://www.w3.org/2000/svg">
<path d="M8.00016 15.8335V3.3335" stroke="#555555" stroke-width="1.25" stroke-linecap="round" stroke-linejoin="round"/>
<path d="M13.0002 11.6665V17.4134" stroke="#555555" stroke-width="1.25" stroke-linecap="round" stroke-linejoin="round"/>
<path d="M18 10.8335V15.2769C18.0008 15.6351 17.7719 15.9535 17.4321 16.0668C16.351 16.4273 14.0355 17.1992 13.2595 17.458C13.0897 17.5146 12.9059 17.5142 12.7363 17.4567L8.26355 15.9656C8.09248 15.9085 7.90752 15.9085 7.73645 15.9656L4.09688 17.1789C3.84276 17.2636 3.5634 17.221 3.34609 17.0644C3.12877 16.9078 3 16.6562 3 16.3884V5.51079C3 5.15211 3.22951 4.83367 3.56978 4.72024L7.47289 3.41904C7.81503 3.30498 8.18492 3.30498 8.52706 3.41904L9.66667 3.79893" stroke="#555555" stroke-width="1.25" stroke-linecap="round" stroke-linejoin="round"/>
<path d="M12.1665 5.4165C12.1665 6.78193 13.6565 8.24051 14.5065 8.9618C14.8422 9.23473 15.3233 9.23473 15.659 8.9618C16.5098 8.24051 17.9998 6.78193 17.9998 5.4165" stroke="#555555" stroke-width="1.25" stroke-linecap="round" stroke-linejoin="round"/>
<path d="M15.084 5.20834C15.199 5.2088 15.2918 5.30228 15.2915 5.41723C15.2912 5.53218 15.1978 5.62516 15.0829 5.625C14.9679 5.62485 14.8748 5.53162 14.8748 5.41667C14.8745 5.36118 14.8965 5.3079 14.9358 5.26874C14.9751 5.22958 15.0285 5.20782 15.084 5.20834" stroke="#555555" stroke-width="1.25" stroke-linecap="round" stroke-linejoin="round"/>
<path d="M12.1665 5.41667V5.41667C12.1665 3.80584 13.4723 2.5 15.0832 2.5V2.5C16.694 2.5 17.9998 3.80584 17.9998 5.41667V5.41667" stroke="#555555" stroke-width="1.25" stroke-linecap="round" stroke-linejoin="round"/>
</svg>
