<svg width="24" height="24" viewBox="0 0 24 24" fill="none" xmlns="http://www.w3.org/2000/svg">
<path d="M9 19V4" stroke="#555555" stroke-width="1.5" stroke-linecap="round" stroke-linejoin="round"/>
<path d="M15 14V20.8963" stroke="#555555" stroke-width="1.5" stroke-linecap="round" stroke-linejoin="round"/>
<path d="M21 13V18.3321C21.0009 18.7619 20.7263 19.144 20.3186 19.28C19.0212 19.7125 16.2426 20.6388 15.3114 20.9494C15.1076 21.0173 14.8871 21.0168 14.6836 20.9478L9.31626 19.1585C9.11097 19.0901 8.88903 19.0901 8.68374 19.1585L4.31626 20.6145C4.01131 20.7162 3.67608 20.665 3.4153 20.4771C3.15453 20.2891 3 19.9873 3 19.6658V6.61276C3 6.18234 3.27542 5.80021 3.68374 5.66409L8.36747 4.10265C8.77803 3.96578 9.22191 3.96578 9.63247 4.10265L11 4.55852" stroke="#555555" stroke-width="1.5" stroke-linecap="round" stroke-linejoin="round"/>
<path d="M14 6.5C14 8.13851 15.788 9.88881 16.808 10.7544C17.2108 11.0819 17.7882 11.0819 18.191 10.7544C19.212 9.88881 21 8.13851 21 6.5" stroke="#555555" stroke-width="1.5" stroke-linecap="round" stroke-linejoin="round"/>
<path d="M17.501 6.25001C17.6389 6.25056 17.7504 6.36273 17.75 6.50067C17.7496 6.63861 17.6376 6.75019 17.4997 6.75C17.3617 6.74982 17.25 6.63795 17.25 6.50001C17.2496 6.43342 17.276 6.36947 17.3232 6.32248C17.3704 6.27549 17.4344 6.24939 17.501 6.25001" stroke="#555555" stroke-width="1.5" stroke-linecap="round" stroke-linejoin="round"/>
<path d="M14 6.5V6.5C14 4.567 15.567 3 17.5 3V3C19.433 3 21 4.567 21 6.5V6.5" stroke="#555555" stroke-width="1.5" stroke-linecap="round" stroke-linejoin="round"/>
</svg>
