<svg width="24" height="24" viewBox="0 0 24 24" fill="none" xmlns="http://www.w3.org/2000/svg">
<path d="M14.2218 6.44487C15.449 6.44487 16.4439 5.45001 16.4439 4.2228C16.4439 2.99559 15.449 2.00073 14.2218 2.00073C12.9946 2.00073 11.9998 2.99559 11.9998 4.2228C11.9998 5.45001 12.9946 6.44487 14.2218 6.44487Z" stroke="white" stroke-width="1.5" stroke-linecap="round" stroke-linejoin="round"/>
<path d="M15.3338 21.9994C16.561 21.9994 17.5558 21.0046 17.5558 19.7774C17.5558 18.5502 16.561 17.5553 15.3338 17.5553C14.1065 17.5553 13.1117 18.5502 13.1117 19.7774C13.1117 21.0046 14.1065 21.9994 15.3338 21.9994Z" stroke="white" stroke-width="1.5" stroke-linecap="round" stroke-linejoin="round"/>
<path d="M7.55569 14.222C8.7829 14.222 9.77775 13.2271 9.77775 11.9999C9.77775 10.7727 8.7829 9.77783 7.55569 9.77783C6.32847 9.77783 5.33362 10.7727 5.33362 11.9999C5.33362 13.2271 6.32847 14.222 7.55569 14.222Z" stroke="white" stroke-width="1.5" stroke-linecap="round" stroke-linejoin="round"/>
<path d="M2.00049 4.2229H11.9998" stroke="white" stroke-width="1.5" stroke-linecap="round" stroke-linejoin="round"/>
<path d="M16.4448 4.2229H22" stroke="white" stroke-width="1.5" stroke-linecap="round" stroke-linejoin="round"/>
<path d="M2.00049 12H5.33359" stroke="white" stroke-width="1.5" stroke-linecap="round" stroke-linejoin="round"/>
<path d="M9.77856 12H21.9999" stroke="white" stroke-width="1.5" stroke-linecap="round" stroke-linejoin="round"/>
<path d="M2.00049 19.7772H13.1108" stroke="white" stroke-width="1.5" stroke-linecap="round" stroke-linejoin="round"/>
<path d="M17.5541 19.7772H21.9982" stroke="white" stroke-width="1.5" stroke-linecap="round" stroke-linejoin="round"/>
</svg>
