<svg width="16" height="17" viewBox="0 0 16 17" fill="none" xmlns="http://www.w3.org/2000/svg">
<path fill-rule="evenodd" clip-rule="evenodd" d="M7.99984 9.56462C8.73622 9.56462 9.33317 8.96766 9.33317 8.23128C9.33317 7.4949 8.73622 6.89795 7.99984 6.89795C7.26346 6.89795 6.6665 7.4949 6.6665 8.23128C6.6665 8.96766 7.26346 9.56462 7.99984 9.56462Z" stroke="#555555" stroke-linecap="round" stroke-linejoin="round"/>
<path fill-rule="evenodd" clip-rule="evenodd" d="M13.2027 12.4334V12.4334C11.5327 12.0994 9.81 12.1407 8.158 12.5534L8 12.5934C6.244 13.032 4.41267 13.076 2.638 12.7207L2.536 12.7C2.224 12.638 2 12.364 2 12.0467V4.82069C2 4.40002 2.38467 4.08469 2.79733 4.16669V4.16669C4.46733 4.50069 6.19 4.45936 7.842 4.04669L8.15733 3.96802C9.80933 3.55536 11.5327 3.51402 13.202 3.84802L13.4633 3.90002C13.776 3.96269 14 4.23602 14 4.55402V11.78C14 12.2007 13.6153 12.516 13.2027 12.4334V12.4334Z" stroke="#555555" stroke-linecap="round" stroke-linejoin="round"/>
<path d="M11.9998 5.6752C11.5558 5.63453 11.1112 5.61653 10.6665 5.62786" stroke="#555555" stroke-linecap="round" stroke-linejoin="round"/>
<path d="M4 10.9105C4.444 10.9512 4.88867 10.9685 5.33333 10.9579" stroke="#555555" stroke-linecap="round" stroke-linejoin="round"/>
</svg>
