<svg width="96" height="77" viewBox="0 0 96 77" fill="none" xmlns="http://www.w3.org/2000/svg">
<g id="Group 41638">
<g id="Group 40072">
<g id="Group 40071">
<path id="Vector 4" d="M68.8812 54.6599H51.0909H49.8877L55.3021 62.7386L74.3815 61.5354L68.8812 54.6599Z" fill="white" stroke="white"/>
<g id="folder 1 (Traced)">
<mask id="path-2-inside-1_2262_95675" fill="white">
<path d="M27.1136 2.12452C27.1136 0.996771 27.1701 0.735503 27.4873 0.397746C27.8166 0.0472687 28.022 0 29.2141 0C30.4212 0 30.6123 0.0453784 30.9888 0.421982C31.754 1.18705 31.3796 2.29984 30.2885 2.50456C29.815 2.59343 29.6919 2.69725 29.6919 3.00819C29.6919 3.56441 29.1822 4.10654 28.543 4.22996C28.1016 4.31521 27.9105 4.25024 27.5547 3.89444C27.1573 3.49703 27.1136 3.32188 27.1136 2.12452Z"/>
<path d="M34.442 2.22198C33.8744 1.77559 33.821 0.855652 34.3328 0.343773C34.6405 0.0360962 34.9057 0 36.8572 0C38.8593 0 39.07 0.0305957 39.4355 0.373682C39.9628 0.869231 39.9527 1.61505 39.4112 2.15632C39.0106 2.55716 38.8866 2.5783 36.9421 2.5783C35.1312 2.5783 34.8426 2.53722 34.442 2.22198Z"/>
<path d="M42.8335 2.15632C42.3089 1.63172 42.2895 0.925609 42.7852 0.397746C43.1382 0.0221732 43.2814 0 45.3635 0C47.339 0 47.6039 0.0357524 47.9119 0.343773C48.4705 0.902405 48.4293 1.63292 47.8075 2.19155C47.4117 2.54719 47.2113 2.5783 45.3162 2.5783C43.3572 2.5783 43.2345 2.5575 42.8335 2.15632Z"/>
<path d="M51.1626 2.08653C50.7157 1.53478 50.7497 0.928016 51.2559 0.421982C51.6592 0.0185641 51.7733 0 53.842 0C55.9362 0 56.0205 0.0142669 56.4473 0.441061C56.8044 0.798242 56.8677 0.985942 56.7793 1.42718C56.5799 2.42412 56.3905 2.49236 53.8207 2.49236C51.5798 2.49236 51.4785 2.47689 51.1626 2.08653Z"/>
<path d="M59.8764 2.19155C59.2547 1.63292 59.2134 0.902405 59.7721 0.343773C60.0797 0.0360962 60.345 0 62.2964 0C64.2985 0 64.5092 0.0305957 64.8747 0.373682C65.402 0.869231 65.3919 1.61505 64.8504 2.15632C64.4494 2.5575 64.3267 2.5783 62.3677 2.5783C60.4727 2.5783 60.2722 2.54719 59.8764 2.19155Z"/>
<path d="M68.2727 2.15632C67.7481 1.63172 67.7287 0.925609 68.2244 0.397746C68.5775 0.0221732 68.7206 0 70.8027 0C72.7782 0 73.0431 0.0357524 73.3511 0.343773C73.863 0.855652 73.8095 1.77559 73.2419 2.22198C72.8413 2.53722 72.5527 2.5783 70.7419 2.5783C68.7973 2.5783 68.6734 2.55716 68.2727 2.15632Z"/>
<path d="M77.3954 2.50456C76.3043 2.29984 75.9299 1.18705 76.6951 0.421982C77.0702 0.0467535 77.2641 0 78.4458 0C79.5736 0 79.8348 0.0565506 80.1726 0.373682C80.5231 0.703016 80.5703 0.908421 80.5703 2.10046C80.5703 3.32377 80.5281 3.49566 80.1293 3.89444C79.7735 4.25024 79.5823 4.31521 79.1409 4.22996C78.5017 4.10654 77.992 3.56441 77.992 3.00819C77.992 2.69725 77.869 2.59343 77.3954 2.50456Z"/>
<path d="M15.1841 3.08966C14.3508 2.16732 14.4026 1.23054 15.3076 0.856855C15.8638 0.627386 16.474 0.817321 17.0926 1.41239L17.6426 1.94146L18.2559 1.40294C19.0875 0.672936 19.6346 0.555194 20.2101 0.98302C20.9262 1.51535 20.9148 2.33491 20.1795 3.18489L19.5891 3.86745L20.1714 4.51254C21.6364 6.13515 19.8732 7.84817 18.3527 6.27936L17.7752 5.68343L17.1153 6.27936C16.3146 7.00283 15.4647 7.08775 14.9163 6.49921C14.3952 5.93989 14.4779 5.32127 15.1841 4.49621L15.8022 3.77394L15.1841 3.08966Z"/>
<path d="M77.992 10.0554C77.992 8.18885 78.0319 7.90232 78.3484 7.50027C78.7989 6.92738 79.6097 6.89231 80.1726 7.42103C80.5489 7.77461 80.5703 7.91572 80.5703 10.0313C80.5703 12.0909 80.5408 12.2992 80.1967 12.6656C79.6683 13.2279 78.814 13.2024 78.3484 12.6105C78.0319 12.2084 77.992 11.9219 77.992 10.0554Z"/>
</mask>
<path d="M27.1136 2.12452C27.1136 0.996771 27.1701 0.735503 27.4873 0.397746C27.8166 0.0472687 28.022 0 29.2141 0C30.4212 0 30.6123 0.0453784 30.9888 0.421982C31.754 1.18705 31.3796 2.29984 30.2885 2.50456C29.815 2.59343 29.6919 2.69725 29.6919 3.00819C29.6919 3.56441 29.1822 4.10654 28.543 4.22996C28.1016 4.31521 27.9105 4.25024 27.5547 3.89444C27.1573 3.49703 27.1136 3.32188 27.1136 2.12452Z" fill="#002D84"/>
<path d="M34.442 2.22198C33.8744 1.77559 33.821 0.855652 34.3328 0.343773C34.6405 0.0360962 34.9057 0 36.8572 0C38.8593 0 39.07 0.0305957 39.4355 0.373682C39.9628 0.869231 39.9527 1.61505 39.4112 2.15632C39.0106 2.55716 38.8866 2.5783 36.9421 2.5783C35.1312 2.5783 34.8426 2.53722 34.442 2.22198Z" fill="#002D84"/>
<path d="M42.8335 2.15632C42.3089 1.63172 42.2895 0.925609 42.7852 0.397746C43.1382 0.0221732 43.2814 0 45.3635 0C47.339 0 47.6039 0.0357524 47.9119 0.343773C48.4705 0.902405 48.4293 1.63292 47.8075 2.19155C47.4117 2.54719 47.2113 2.5783 45.3162 2.5783C43.3572 2.5783 43.2345 2.5575 42.8335 2.15632Z" fill="#002D84"/>
<path d="M51.1626 2.08653C50.7157 1.53478 50.7497 0.928016 51.2559 0.421982C51.6592 0.0185641 51.7733 0 53.842 0C55.9362 0 56.0205 0.0142669 56.4473 0.441061C56.8044 0.798242 56.8677 0.985942 56.7793 1.42718C56.5799 2.42412 56.3905 2.49236 53.8207 2.49236C51.5798 2.49236 51.4785 2.47689 51.1626 2.08653Z" fill="#002D84"/>
<path d="M59.8764 2.19155C59.2547 1.63292 59.2134 0.902405 59.7721 0.343773C60.0797 0.0360962 60.345 0 62.2964 0C64.2985 0 64.5092 0.0305957 64.8747 0.373682C65.402 0.869231 65.3919 1.61505 64.8504 2.15632C64.4494 2.5575 64.3267 2.5783 62.3677 2.5783C60.4727 2.5783 60.2722 2.54719 59.8764 2.19155Z" fill="#002D84"/>
<path d="M68.2727 2.15632C67.7481 1.63172 67.7287 0.925609 68.2244 0.397746C68.5775 0.0221732 68.7206 0 70.8027 0C72.7782 0 73.0431 0.0357524 73.3511 0.343773C73.863 0.855652 73.8095 1.77559 73.2419 2.22198C72.8413 2.53722 72.5527 2.5783 70.7419 2.5783C68.7973 2.5783 68.6734 2.55716 68.2727 2.15632Z" fill="#002D84"/>
<path d="M77.3954 2.50456C76.3043 2.29984 75.9299 1.18705 76.6951 0.421982C77.0702 0.0467535 77.2641 0 78.4458 0C79.5736 0 79.8348 0.0565506 80.1726 0.373682C80.5231 0.703016 80.5703 0.908421 80.5703 2.10046C80.5703 3.32377 80.5281 3.49566 80.1293 3.89444C79.7735 4.25024 79.5823 4.31521 79.1409 4.22996C78.5017 4.10654 77.992 3.56441 77.992 3.00819C77.992 2.69725 77.869 2.59343 77.3954 2.50456Z" fill="#002D84"/>
<path d="M15.1841 3.08966C14.3508 2.16732 14.4026 1.23054 15.3076 0.856855C15.8638 0.627386 16.474 0.817321 17.0926 1.41239L17.6426 1.94146L18.2559 1.40294C19.0875 0.672936 19.6346 0.555194 20.2101 0.98302C20.9262 1.51535 20.9148 2.33491 20.1795 3.18489L19.5891 3.86745L20.1714 4.51254C21.6364 6.13515 19.8732 7.84817 18.3527 6.27936L17.7752 5.68343L17.1153 6.27936C16.3146 7.00283 15.4647 7.08775 14.9163 6.49921C14.3952 5.93989 14.4779 5.32127 15.1841 4.49621L15.8022 3.77394L15.1841 3.08966Z" fill="#002D84"/>
<path d="M77.992 10.0554C77.992 8.18885 78.0319 7.90232 78.3484 7.50027C78.7989 6.92738 79.6097 6.89231 80.1726 7.42103C80.5489 7.77461 80.5703 7.91572 80.5703 10.0313C80.5703 12.0909 80.5408 12.2992 80.1967 12.6656C79.6683 13.2279 78.814 13.2024 78.3484 12.6105C78.0319 12.2084 77.992 11.9219 77.992 10.0554Z" fill="#002D84"/>
<path d="M27.1136 2.12452C27.1136 0.996771 27.1701 0.735503 27.4873 0.397746C27.8166 0.0472687 28.022 0 29.2141 0C30.4212 0 30.6123 0.0453784 30.9888 0.421982C31.754 1.18705 31.3796 2.29984 30.2885 2.50456C29.815 2.59343 29.6919 2.69725 29.6919 3.00819C29.6919 3.56441 29.1822 4.10654 28.543 4.22996C28.1016 4.31521 27.9105 4.25024 27.5547 3.89444C27.1573 3.49703 27.1136 3.32188 27.1136 2.12452Z" stroke="#003183" stroke-width="6" mask="url(#path-2-inside-1_2262_95675)"/>
<path d="M34.442 2.22198C33.8744 1.77559 33.821 0.855652 34.3328 0.343773C34.6405 0.0360962 34.9057 0 36.8572 0C38.8593 0 39.07 0.0305957 39.4355 0.373682C39.9628 0.869231 39.9527 1.61505 39.4112 2.15632C39.0106 2.55716 38.8866 2.5783 36.9421 2.5783C35.1312 2.5783 34.8426 2.53722 34.442 2.22198Z" stroke="#003183" stroke-width="6" mask="url(#path-2-inside-1_2262_95675)"/>
<path d="M42.8335 2.15632C42.3089 1.63172 42.2895 0.925609 42.7852 0.397746C43.1382 0.0221732 43.2814 0 45.3635 0C47.339 0 47.6039 0.0357524 47.9119 0.343773C48.4705 0.902405 48.4293 1.63292 47.8075 2.19155C47.4117 2.54719 47.2113 2.5783 45.3162 2.5783C43.3572 2.5783 43.2345 2.5575 42.8335 2.15632Z" stroke="#003183" stroke-width="6" mask="url(#path-2-inside-1_2262_95675)"/>
<path d="M51.1626 2.08653C50.7157 1.53478 50.7497 0.928016 51.2559 0.421982C51.6592 0.0185641 51.7733 0 53.842 0C55.9362 0 56.0205 0.0142669 56.4473 0.441061C56.8044 0.798242 56.8677 0.985942 56.7793 1.42718C56.5799 2.42412 56.3905 2.49236 53.8207 2.49236C51.5798 2.49236 51.4785 2.47689 51.1626 2.08653Z" stroke="#003183" stroke-width="6" mask="url(#path-2-inside-1_2262_95675)"/>
<path d="M59.8764 2.19155C59.2547 1.63292 59.2134 0.902405 59.7721 0.343773C60.0797 0.0360962 60.345 0 62.2964 0C64.2985 0 64.5092 0.0305957 64.8747 0.373682C65.402 0.869231 65.3919 1.61505 64.8504 2.15632C64.4494 2.5575 64.3267 2.5783 62.3677 2.5783C60.4727 2.5783 60.2722 2.54719 59.8764 2.19155Z" stroke="#003183" stroke-width="6" mask="url(#path-2-inside-1_2262_95675)"/>
<path d="M68.2727 2.15632C67.7481 1.63172 67.7287 0.925609 68.2244 0.397746C68.5775 0.0221732 68.7206 0 70.8027 0C72.7782 0 73.0431 0.0357524 73.3511 0.343773C73.863 0.855652 73.8095 1.77559 73.2419 2.22198C72.8413 2.53722 72.5527 2.5783 70.7419 2.5783C68.7973 2.5783 68.6734 2.55716 68.2727 2.15632Z" stroke="#003183" stroke-width="6" mask="url(#path-2-inside-1_2262_95675)"/>
<path d="M77.3954 2.50456C76.3043 2.29984 75.9299 1.18705 76.6951 0.421982C77.0702 0.0467535 77.2641 0 78.4458 0C79.5736 0 79.8348 0.0565506 80.1726 0.373682C80.5231 0.703016 80.5703 0.908421 80.5703 2.10046C80.5703 3.32377 80.5281 3.49566 80.1293 3.89444C79.7735 4.25024 79.5823 4.31521 79.1409 4.22996C78.5017 4.10654 77.992 3.56441 77.992 3.00819C77.992 2.69725 77.869 2.59343 77.3954 2.50456Z" stroke="#003183" stroke-width="6" mask="url(#path-2-inside-1_2262_95675)"/>
<path d="M15.1841 3.08966C14.3508 2.16732 14.4026 1.23054 15.3076 0.856855C15.8638 0.627386 16.474 0.817321 17.0926 1.41239L17.6426 1.94146L18.2559 1.40294C19.0875 0.672936 19.6346 0.555194 20.2101 0.98302C20.9262 1.51535 20.9148 2.33491 20.1795 3.18489L19.5891 3.86745L20.1714 4.51254C21.6364 6.13515 19.8732 7.84817 18.3527 6.27936L17.7752 5.68343L17.1153 6.27936C16.3146 7.00283 15.4647 7.08775 14.9163 6.49921C14.3952 5.93989 14.4779 5.32127 15.1841 4.49621L15.8022 3.77394L15.1841 3.08966Z" stroke="#003183" stroke-width="6" mask="url(#path-2-inside-1_2262_95675)"/>
<path d="M77.992 10.0554C77.992 8.18885 78.0319 7.90232 78.3484 7.50027C78.7989 6.92738 79.6097 6.89231 80.1726 7.42103C80.5489 7.77461 80.5703 7.91572 80.5703 10.0313C80.5703 12.0909 80.5408 12.2992 80.1967 12.6656C79.6683 13.2279 78.814 13.2024 78.3484 12.6105C78.0319 12.2084 77.992 11.9219 77.992 10.0554Z" stroke="#003183" stroke-width="6" mask="url(#path-2-inside-1_2262_95675)"/>
</g>
</g>
<rect id="Rectangle 4112" x="82.5103" y="27.1907" width="2.14634" height="23.6068" rx="1.07317" transform="rotate(-0.0407076 82.5103 27.1907)" fill="white"/>
<rect id="Rectangle 4113" x="82.5176" y="23.6113" width="2.14634" height="2.05959" rx="1.02979" transform="rotate(-0.0407076 82.5176 23.6113)" fill="white"/>
</g>
<path id="Subtract" fill-rule="evenodd" clip-rule="evenodd" d="M21.75 42.7585V13.7585C21.75 12.654 22.6454 11.7585 23.75 11.7585H46.0675C46.8274 11.7585 47.559 12.0469 48.1145 12.5654L53.8855 17.9517C54.441 18.4702 55.1726 18.7585 55.9325 18.7585H85.75C86.8546 18.7585 87.75 19.654 87.75 20.7585V66.7585L23.75 65.2585L21.75 42.7585ZM53.75 46.7585C57.616 46.7585 60.75 43.6245 60.75 39.7585C60.75 35.8926 57.616 32.7585 53.75 32.7585C49.884 32.7585 46.75 35.8926 46.75 39.7585C46.75 43.6245 49.884 46.7585 53.75 46.7585Z" fill="url(#paint0_linear_2262_95675)"/>
<path id="Vector 454" d="M65.839 42.7585H4.60788C2.89762 42.7585 1.97636 44.7659 3.09151 46.0626L20.5765 66.394C21.3228 67.2618 22.4051 67.7683 23.5495 67.7854L84.4826 68.6949C86.1777 68.7202 87.1336 66.7572 86.0683 65.4384L68.9508 44.2452C68.1914 43.305 67.0476 42.7585 65.839 42.7585Z" fill="url(#paint1_linear_2262_95675)"/>
<path id="Vector 455" d="M55.1497 62.0197L50.5749 56.3891C50.0439 55.7356 50.5089 54.7585 51.351 54.7585H68.2981C68.9003 54.7585 69.4705 55.0299 69.8503 55.4974L74.4251 61.128C74.9561 61.7815 74.4911 62.7585 73.649 62.7585H56.7019C56.0997 62.7585 55.5295 62.4872 55.1497 62.0197Z" fill="url(#paint2_linear_2262_95675)"/>
<rect id="Rectangle 23961" x="40.75" y="56.7585" width="5" height="2" rx="1" fill="url(#paint3_linear_2262_95675)"/>
<rect id="Rectangle 23962" x="37.75" y="59.7585" width="8" height="2" rx="1" fill="url(#paint4_linear_2262_95675)"/>
<g id="Group 41637">
<circle id="Ellipse 613" cx="85.25" cy="66.2585" r="10.5" fill="url(#paint5_linear_2262_95675)"/>
<line id="Line 948" x1="87.9192" y1="69.0132" x2="82.2589" y2="63.3529" stroke="white" stroke-width="3" stroke-linecap="round"/>
<line id="Line 949" x1="88.1333" y1="63.3528" x2="82.473" y2="69.0131" stroke="white" stroke-width="3" stroke-linecap="round"/>
</g>
</g>
<defs>
<linearGradient id="paint0_linear_2262_95675" x1="77.75" y1="18.7683" x2="50.75" y2="55.7683" gradientUnits="userSpaceOnUse">
<stop stop-color="#5193FF"/>
<stop offset="1" stop-color="#045FF2"/>
</linearGradient>
<linearGradient id="paint1_linear_2262_95675" x1="23.75" y1="66.7585" x2="65.25" y2="46.7585" gradientUnits="userSpaceOnUse">
<stop stop-color="#FFC00E"/>
<stop offset="1" stop-color="#FECE48"/>
</linearGradient>
<linearGradient id="paint2_linear_2262_95675" x1="62.5" y1="54.7585" x2="62.5" y2="62.7585" gradientUnits="userSpaceOnUse">
<stop stop-color="#176CF7"/>
<stop offset="1" stop-color="#0C36C1"/>
</linearGradient>
<linearGradient id="paint3_linear_2262_95675" x1="40.75" y1="58.7585" x2="45.25" y2="57.2585" gradientUnits="userSpaceOnUse">
<stop stop-color="#0060FF"/>
<stop offset="1" stop-color="#3581FF"/>
</linearGradient>
<linearGradient id="paint4_linear_2262_95675" x1="37.25" y1="62.7585" x2="42.75" y2="60.2585" gradientUnits="userSpaceOnUse">
<stop stop-color="#0060FF"/>
<stop offset="1" stop-color="#3581FF"/>
</linearGradient>
<linearGradient id="paint5_linear_2262_95675" x1="91.8124" y1="57.5682" x2="78.9708" y2="74.5375" gradientUnits="userSpaceOnUse">
<stop stop-color="#FF4E4E"/>
<stop offset="1" stop-color="#F71717"/>
</linearGradient>
</defs>
</svg>
