<svg width="42" height="42" viewBox="0 0 42 42" fill="none" xmlns="http://www.w3.org/2000/svg">
<g clip-path="url(#clip0_2059_447530)">
<path d="M21 42C32.598 42 42 32.598 42 21C42 9.40202 32.598 0 21 0C9.40202 0 0 9.40202 0 21C0 32.598 9.40202 42 21 42Z" fill="url(#paint0_linear_2059_447530)"/>
<path d="M25.4183 41.5047C25.821 41.4266 26.2214 41.3367 26.6188 41.2352C27.2927 41.0468 27.9568 40.8249 28.6086 40.5702C29.2612 40.3176 29.9007 40.0326 30.5248 39.7162C31.1491 39.3985 31.7571 39.0498 32.3466 38.6714C32.9353 38.2929 33.5048 37.8853 34.0528 37.4499C34.6018 37.014 35.1286 36.5508 35.6313 36.0622C36.1332 35.5747 36.6103 35.0625 37.0611 34.5274C37.5122 33.9919 37.9362 33.4341 38.3316 32.8562C38.7268 32.2792 39.0931 31.6829 39.4288 31.0694C39.7646 30.455 40.0695 29.8243 40.3423 29.1794C40.6154 28.5344 40.856 27.8762 41.0633 27.2072C41.2408 26.6214 41.3926 26.0282 41.5183 25.4292L29.0408 12.9534C27.9871 11.895 26.7345 11.0555 25.355 10.483C23.9756 9.91059 22.4966 9.61658 21.0031 9.61793C19.5082 9.61629 18.0278 9.91014 16.6469 10.4826C15.266 11.055 14.0119 11.8947 12.9566 12.9534C11.8986 14.009 11.0593 15.263 10.4866 16.6434C9.91392 18.0238 9.61914 19.5037 9.61914 20.9982C9.61914 22.4927 9.91392 23.9725 10.4866 25.353C11.0593 26.7334 11.8986 27.9873 12.9566 29.0429L25.4183 41.5047Z" fill="url(#paint1_linear_2059_447530)"/>
<path fill-rule="evenodd" clip-rule="evenodd" d="M21 33C27.6274 33 33 27.6274 33 21C33 14.3726 27.6274 9 21 9C14.3726 9 9 14.3726 9 21C9 27.6274 14.3726 33 21 33ZM14.6729 20.9982C14.6729 17.3915 17.614 14.4545 21.2214 14.4545C24.8281 14.4545 27.7638 17.3915 27.7638 20.9982C27.7638 24.605 24.8281 27.5455 21.2214 27.5455C17.6146 27.5455 14.6729 24.605 14.6729 20.9982ZM23.2714 16.0495C22.6214 15.7808 21.9247 15.6431 21.2214 15.6443C18.2577 15.6443 15.8627 18.0345 15.8627 20.9982C15.862 21.7021 16.0001 22.3991 16.2692 23.0495C16.5383 23.6999 16.933 24.2909 17.4307 24.7885C17.9285 25.2862 18.5195 25.6807 19.17 25.9497C19.8204 26.2186 20.5175 26.3566 21.2214 26.3557C21.9249 26.3565 22.6217 26.2184 23.2718 25.9494C23.9219 25.6804 24.5125 25.2857 25.0097 24.788C25.507 24.2903 25.9012 23.6993 26.1696 23.049C26.438 22.3987 26.5755 21.7018 26.5741 20.9982C26.5754 20.2949 26.4379 19.5982 26.1694 18.9481C25.9009 18.298 25.5067 17.7073 25.0094 17.2099C24.5121 16.7125 23.9215 16.3181 23.2714 16.0495ZM20.9833 16.8738C21.0555 16.8429 21.1332 16.8265 21.2119 16.8257C21.2916 16.8248 21.3707 16.8398 21.4445 16.87C21.5183 16.9002 21.5852 16.945 21.6414 17.0016C21.6976 17.0582 21.7418 17.1255 21.7714 17.1995C21.801 17.2736 21.8155 17.3528 21.8139 17.4325V20.7519L24.0179 22.956C24.0748 23.0107 24.1203 23.0762 24.1517 23.1487C24.1831 23.2212 24.1997 23.2992 24.2006 23.3781C24.2015 23.4571 24.1866 23.5355 24.1569 23.6087C24.1272 23.6818 24.0833 23.7484 24.0276 23.8044C23.9719 23.8604 23.9056 23.9047 23.8326 23.9349C23.7596 23.965 23.6813 23.9802 23.6023 23.9798C23.5233 23.9793 23.4452 23.9632 23.3726 23.9322C23.2999 23.9013 23.2342 23.8561 23.1791 23.7995L20.7996 21.4188C20.7439 21.3638 20.6997 21.2983 20.6693 21.2261C20.639 21.1539 20.6232 21.0765 20.6229 20.9982V17.4325C20.6213 17.3539 20.6354 17.2757 20.6642 17.2026C20.693 17.1294 20.736 17.0627 20.7908 17.0063C20.8456 16.9498 20.911 16.9048 20.9833 16.8738Z" fill="white"/>
</g>
<defs>
<linearGradient id="paint0_linear_2059_447530" x1="1.5" y1="16" x2="23.9227" y2="26.4838" gradientUnits="userSpaceOnUse">
<stop stop-color="#E9AD06"/>
<stop offset="1" stop-color="#FFD14F"/>
</linearGradient>
<linearGradient id="paint1_linear_2059_447530" x1="29.5" y1="25" x2="35.3214" y2="32.315" gradientUnits="userSpaceOnUse">
<stop stop-color="#E5A902"/>
<stop offset="1" stop-color="#FFD14F"/>
</linearGradient>
<clipPath id="clip0_2059_447530">
<rect width="42" height="42" fill="white"/>
</clipPath>
</defs>
</svg>
