<svg width="42" height="42" viewBox="0 0 42 42" fill="none" xmlns="http://www.w3.org/2000/svg">
<g clip-path="url(#clip0_2059_447750)">
<path d="M21 42C32.598 42 42 32.598 42 21C42 9.40202 32.598 0 21 0C9.40202 0 0 9.40202 0 21C0 32.598 9.40202 42 21 42Z" fill="url(#paint0_linear_2059_447750)"/>
<path d="M25.4183 41.5047C25.821 41.4266 26.2214 41.3367 26.6188 41.2352C27.2927 41.0468 27.9568 40.8249 28.6086 40.5702C29.2612 40.3176 29.9007 40.0326 30.5248 39.7162C31.1491 39.3985 31.7571 39.0498 32.3466 38.6714C32.9353 38.2929 33.5048 37.8853 34.0528 37.4499C34.6018 37.014 35.1286 36.5508 35.6313 36.0622C36.1332 35.5747 36.6103 35.0625 37.0611 34.5274C37.5122 33.9919 37.9362 33.4341 38.3316 32.8562C38.7268 32.2792 39.0931 31.6829 39.4288 31.0694C39.7646 30.455 40.0695 29.8243 40.3423 29.1794C40.6154 28.5344 40.856 27.8762 41.0633 27.2072C41.2408 26.6214 41.3926 26.0282 41.5183 25.4292L29.0408 12.9534C27.9871 11.895 26.7345 11.0555 25.355 10.483C23.9756 9.91059 22.4966 9.61658 21.0031 9.61793C19.5082 9.61629 18.0278 9.91014 16.6469 10.4826C15.266 11.055 14.0119 11.8947 12.9566 12.9534C11.8986 14.009 11.0593 15.263 10.4866 16.6434C9.91392 18.0238 9.61914 19.5037 9.61914 20.9982C9.61914 22.4927 9.91392 23.9725 10.4866 25.353C11.0593 26.7334 11.8986 27.9873 12.9566 29.0429L25.4183 41.5047Z" fill="url(#paint1_linear_2059_447750)"/>
<path fill-rule="evenodd" clip-rule="evenodd" d="M21 33C27.6274 33 33 27.6274 33 21C33 14.3726 27.6274 9 21 9C14.3726 9 9 14.3726 9 21C9 27.6274 14.3726 33 21 33ZM15.4613 19.0929C15.4613 16.0698 17.9431 13.6153 20.9998 13.6153C24.057 13.6153 26.5382 16.0698 26.5382 19.0929C26.5382 20.0279 26.1156 21.3064 25.4892 22.6616C24.6357 24.5095 23.4166 26.5168 22.5447 27.9526C22.5097 28.0103 22.4753 28.067 22.4414 28.1227C22.2976 28.3746 22.0886 28.5842 21.836 28.73C21.5834 28.8758 21.2961 28.9526 21.0036 28.9526C20.4088 28.9526 19.8599 28.636 19.5664 28.1249C19.5189 28.0466 19.4703 27.9664 19.4205 27.8844C18.5515 26.452 17.3549 24.4796 16.5136 22.6621C15.8855 21.307 15.4613 20.0279 15.4613 19.0929ZM25.4305 19.0929C25.4305 16.6746 23.4455 14.7108 20.9998 14.7108C18.5545 14.7108 16.569 16.6746 16.569 19.0929C16.569 19.9107 16.9711 21.0205 17.5205 22.2058C18.3414 23.9783 19.5078 25.8997 20.3592 27.3021C20.4142 27.3928 20.4679 27.4812 20.5201 27.5673C20.5229 27.5717 20.5257 27.5766 20.5284 27.5816C20.5757 27.6651 20.6446 27.7347 20.7282 27.7832C20.8117 27.8316 20.9068 27.8571 21.0036 27.8571C21.1004 27.857 21.1955 27.8314 21.279 27.783C21.3625 27.7346 21.4315 27.6651 21.4788 27.5816L21.4871 27.5668C21.5312 27.494 21.5764 27.4196 21.6225 27.3437C22.4757 25.9382 23.6547 23.9961 24.4818 22.2064C25.0301 21.0205 25.4305 19.9107 25.4305 19.0929ZM18.7882 19.0929C18.7882 17.8835 19.7807 16.9019 21.0036 16.9019C22.2265 16.9019 23.219 17.8835 23.219 19.0929C23.219 20.3024 22.2265 21.284 21.0036 21.284C19.7807 21.284 18.7882 20.3024 18.7882 19.0929ZM22.1113 19.0929C22.1113 18.4882 21.6151 17.9974 21.0036 17.9974C20.3922 17.9974 19.8959 18.4882 19.8959 19.0929C19.8959 19.6976 20.3922 20.1884 21.0036 20.1884C21.6151 20.1884 22.1113 19.6976 22.1113 19.0929Z" fill="white"/>
</g>
<defs>
<linearGradient id="paint0_linear_2059_447750" x1="-7" y1="35" x2="32.178" y2="35.7903" gradientUnits="userSpaceOnUse">
<stop stop-color="#004F37"/>
<stop offset="1" stop-color="#00B57E"/>
</linearGradient>
<linearGradient id="paint1_linear_2059_447750" x1="23.626" y1="23.6248" x2="33.1911" y2="42.8578" gradientUnits="userSpaceOnUse">
<stop stop-color="#004F37"/>
<stop offset="1" stop-color="#00B57E"/>
</linearGradient>
<clipPath id="clip0_2059_447750">
<rect width="42" height="42" fill="white"/>
</clipPath>
</defs>
</svg>
