<svg width="42" height="42" viewBox="0 0 42 42" fill="none" xmlns="http://www.w3.org/2000/svg">
<g clip-path="url(#clip0_2059_449686)">
<path d="M21 42C32.598 42 42 32.598 42 21C42 9.40202 32.598 0 21 0C9.40202 0 0 9.40202 0 21C0 32.598 9.40202 42 21 42Z" fill="url(#paint0_linear_2059_449686)"/>
<path d="M25.4183 41.5047C25.821 41.4266 26.2214 41.3367 26.6188 41.2352C27.2927 41.0468 27.9568 40.8249 28.6086 40.5702C29.2612 40.3176 29.9007 40.0326 30.5248 39.7162C31.1491 39.3985 31.7571 39.0498 32.3466 38.6714C32.9353 38.2929 33.5048 37.8853 34.0528 37.4499C34.6018 37.014 35.1286 36.5508 35.6313 36.0622C36.1332 35.5747 36.6103 35.0625 37.0611 34.5274C37.5122 33.9919 37.9362 33.4341 38.3316 32.8562C38.7268 32.2792 39.0931 31.6829 39.4288 31.0694C39.7646 30.455 40.0695 29.8243 40.3423 29.1794C40.6154 28.5344 40.856 27.8762 41.0633 27.2072C41.2408 26.6214 41.3926 26.0282 41.5183 25.4292L29.0408 12.9534C27.9871 11.895 26.7345 11.0555 25.355 10.483C23.9756 9.91059 22.4966 9.61658 21.0031 9.61793C19.5082 9.61629 18.0278 9.91014 16.6469 10.4826C15.266 11.055 14.0119 11.8947 12.9566 12.9534C11.8986 14.009 11.0593 15.263 10.4866 16.6434C9.91392 18.0238 9.61914 19.5037 9.61914 20.9982C9.61914 22.4927 9.91392 23.9725 10.4866 25.353C11.0593 26.7334 11.8986 27.9873 12.9566 29.0429L25.4183 41.5047Z" fill="url(#paint1_linear_2059_449686)"/>
<path fill-rule="evenodd" clip-rule="evenodd" d="M21 33C27.6274 33 33 27.6274 33 21C33 14.3726 27.6274 9 21 9C14.3726 9 9 14.3726 9 21C9 27.6274 14.3726 33 21 33ZM17.0605 15.1041C18.2266 14.325 19.5976 13.9091 21 13.9091C21.9312 13.9091 22.8533 14.0925 23.7136 14.4489C24.5739 14.8052 25.3556 15.3275 26.014 15.986C26.6725 16.6444 27.1948 17.4261 27.5511 18.2864C27.9075 19.1467 28.0909 20.0688 28.0909 21C28.0909 22.4024 27.675 23.7734 26.8959 24.9395C26.1167 26.1056 25.0093 27.0144 23.7136 27.5511C22.4179 28.0878 20.9921 28.2283 19.6166 27.9547C18.2411 27.6811 16.9777 27.0057 15.986 26.014C14.9943 25.0223 14.3189 23.7589 14.0453 22.3834C13.7717 21.0079 13.9122 19.5821 14.4489 18.2864C14.9856 16.9907 15.8944 15.8833 17.0605 15.1041ZM17.8484 25.7167C18.7813 26.34 19.878 26.6727 21 26.6727C22.5045 26.6727 23.9474 26.0751 25.0112 25.0112C26.0751 23.9474 26.6727 22.5045 26.6727 21C26.6727 19.878 26.34 18.7813 25.7167 17.8484C25.0934 16.9155 24.2074 16.1884 23.1709 15.7591C22.1343 15.3297 20.9937 15.2174 19.8933 15.4363C18.7929 15.6552 17.7821 16.1954 16.9888 16.9888C16.1954 17.7821 15.6552 18.7929 15.4363 19.8933C15.2174 20.9937 15.3297 22.1343 15.7591 23.1709C16.1884 24.2074 16.9155 25.0934 17.8484 25.7167ZM20.9996 24.5454C21.3912 24.5454 21.7087 24.2279 21.7087 23.8363C21.7087 23.4447 21.3912 23.1272 20.9996 23.1272C20.608 23.1272 20.2905 23.4447 20.2905 23.8363C20.2905 24.2279 20.608 24.5454 20.9996 24.5454ZM20.4982 17.6622C20.6312 17.5293 20.8115 17.4545 20.9996 17.4545C21.1876 17.4545 21.368 17.5293 21.501 17.6622C21.634 17.7952 21.7087 17.9756 21.7087 18.1636V21.7091C21.7087 21.8972 21.634 22.0775 21.501 22.2105C21.368 22.3435 21.1876 22.4182 20.9996 22.4182C20.8115 22.4182 20.6312 22.3435 20.4982 22.2105C20.3652 22.0775 20.2905 21.8972 20.2905 21.7091V18.1636C20.2905 17.9756 20.3652 17.7952 20.4982 17.6622Z" fill="white"/>
</g>
<defs>
<linearGradient id="paint0_linear_2059_449686" x1="15.05" y1="51.6923" x2="50.5208" y2="32.4036" gradientUnits="userSpaceOnUse">
<stop stop-color="#770000"/>
<stop offset="0.51" stop-color="#BF0808"/>
<stop offset="1" stop-color="#770000"/>
</linearGradient>
<linearGradient id="paint1_linear_2059_449686" x1="25" y1="21.5" x2="22.0246" y2="42.2834" gradientUnits="userSpaceOnUse">
<stop stop-color="#770000"/>
<stop offset="0.51" stop-color="#BF0808"/>
<stop offset="1" stop-color="#770000"/>
</linearGradient>
<clipPath id="clip0_2059_449686">
<rect width="42" height="42" fill="white"/>
</clipPath>
</defs>
</svg>
