<svg width="42" height="42" viewBox="0 0 42 42" fill="none" xmlns="http://www.w3.org/2000/svg">
<g clip-path="url(#clip0_2059_448822)">
<path d="M21 42C32.598 42 42 32.598 42 21C42 9.40202 32.598 0 21 0C9.40202 0 0 9.40202 0 21C0 32.598 9.40202 42 21 42Z" fill="url(#paint0_linear_2059_448822)"/>
<path d="M25.4183 41.5047C25.821 41.4266 26.2214 41.3367 26.6188 41.2352C27.2927 41.0468 27.9568 40.8249 28.6086 40.5702C29.2612 40.3176 29.9007 40.0326 30.5248 39.7162C31.1491 39.3985 31.7571 39.0498 32.3466 38.6714C32.9353 38.2929 33.5048 37.8853 34.0528 37.4499C34.6018 37.014 35.1286 36.5508 35.6313 36.0622C36.1332 35.5747 36.6103 35.0625 37.0611 34.5274C37.5122 33.9919 37.9362 33.4341 38.3316 32.8562C38.7268 32.2792 39.0931 31.6829 39.4288 31.0694C39.7646 30.455 40.0695 29.8243 40.3423 29.1794C40.6154 28.5344 40.856 27.8762 41.0633 27.2072C41.2408 26.6214 41.3926 26.0282 41.5183 25.4292L29.0408 12.9534C27.9871 11.895 26.7345 11.0555 25.355 10.483C23.9756 9.91059 22.4966 9.61658 21.0031 9.61793C19.5082 9.61629 18.0278 9.91014 16.6469 10.4826C15.266 11.055 14.0119 11.8947 12.9566 12.9534C11.8986 14.009 11.0593 15.263 10.4866 16.6434C9.91392 18.0238 9.61914 19.5037 9.61914 20.9982C9.61914 22.4927 9.91392 23.9725 10.4866 25.353C11.0593 26.7334 11.8986 27.9873 12.9566 29.0429L25.4183 41.5047Z" fill="url(#paint1_linear_2059_448822)"/>
<path d="M21.0018 9.00172C24.0682 9.00172 27.1346 10.1733 29.4814 12.5183C30.5968 13.6312 31.4817 14.9532 32.0854 16.4085C32.6892 17.8639 33 19.424 33 20.9997C33 22.5753 32.6892 24.1355 32.0854 25.5908C31.4817 27.0462 30.5968 28.3682 29.4814 29.4811C28.3685 30.5965 27.0465 31.4814 25.5912 32.0851C24.1358 32.6889 22.5756 32.9997 21 32.9997C19.4244 32.9997 17.8642 32.6889 16.4088 32.0851C14.9535 31.4814 13.6315 30.5965 12.5186 29.4811C11.4032 28.3682 10.5183 27.0462 9.91455 25.5908C9.31078 24.1355 9 22.5753 9 20.9997C9 19.424 9.31078 17.8639 9.91455 16.4085C10.5183 14.9532 11.4032 13.6312 12.5186 12.5183C13.6312 11.4021 14.9534 10.5168 16.4092 9.91328C17.8651 9.30979 19.4259 9 21.0018 9.00172ZM26.463 17.3079C26.2884 17.3246 26.122 17.3905 25.9833 17.4979L19.2417 22.5532L16.1182 19.4314C15.441 18.7267 14.1071 20.0587 14.8138 20.7358L18.5037 24.4258C18.6637 24.5771 18.8711 24.6684 19.0906 24.6842C19.3102 24.7 19.5285 24.6393 19.7085 24.5125L27.0885 18.9776C27.7084 18.5256 27.3265 17.3208 26.559 17.3097C26.5276 17.3081 26.4962 17.3081 26.4649 17.3097L26.463 17.3079Z" fill="white"/>
</g>
<defs>
<linearGradient id="paint0_linear_2059_448822" x1="-7" y1="35" x2="32.178" y2="35.7903" gradientUnits="userSpaceOnUse">
<stop stop-color="#004F37"/>
<stop offset="1" stop-color="#00B57E"/>
</linearGradient>
<linearGradient id="paint1_linear_2059_448822" x1="23.626" y1="23.6248" x2="33.1911" y2="42.8578" gradientUnits="userSpaceOnUse">
<stop stop-color="#004F37"/>
<stop offset="1" stop-color="#00B57E"/>
</linearGradient>
<clipPath id="clip0_2059_448822">
<rect width="42" height="42" fill="white"/>
</clipPath>
</defs>
</svg>
