<svg width="42" height="42" viewBox="0 0 42 42" fill="none" xmlns="http://www.w3.org/2000/svg">
<g clip-path="url(#clip0_2059_447621)">
<path d="M21 42C32.598 42 42 32.598 42 21C42 9.40202 32.598 0 21 0C9.40202 0 0 9.40202 0 21C0 32.598 9.40202 42 21 42Z" fill="url(#paint0_linear_2059_447621)"/>
<path d="M25.4183 41.5047C25.821 41.4266 26.2214 41.3367 26.6188 41.2352C27.2927 41.0468 27.9568 40.8249 28.6086 40.5702C29.2612 40.3176 29.9007 40.0326 30.5248 39.7162C31.1491 39.3985 31.7571 39.0498 32.3466 38.6714C32.9353 38.2929 33.5048 37.8853 34.0528 37.4499C34.6018 37.014 35.1286 36.5508 35.6313 36.0622C36.1332 35.5747 36.6103 35.0625 37.0611 34.5274C37.5122 33.9919 37.9362 33.4341 38.3316 32.8562C38.7268 32.2792 39.0931 31.6829 39.4288 31.0694C39.7646 30.455 40.0695 29.8243 40.3423 29.1794C40.6154 28.5344 40.856 27.8762 41.0633 27.2072C41.2408 26.6214 41.3926 26.0282 41.5183 25.4292L29.0408 12.9534C27.9871 11.895 26.7345 11.0555 25.355 10.483C23.9756 9.91059 22.4966 9.61658 21.0031 9.61793C19.5082 9.61629 18.0278 9.91014 16.6469 10.4826C15.266 11.055 14.0119 11.8947 12.9566 12.9534C11.8986 14.009 11.0593 15.263 10.4866 16.6434C9.91392 18.0238 9.61914 19.5037 9.61914 20.9982C9.61914 22.4927 9.91392 23.9725 10.4866 25.353C11.0593 26.7334 11.8986 27.9873 12.9566 29.0429L25.4183 41.5047Z" fill="url(#paint1_linear_2059_447621)"/>
<path fill-rule="evenodd" clip-rule="evenodd" d="M21 33C27.6274 33 33 27.6274 33 21C33 14.3726 27.6274 9 21 9C14.3726 9 9 14.3726 9 21C9 27.6274 14.3726 33 21 33ZM23.7596 17.6082C24.0828 19.1363 24.1419 20.8203 23.9383 22.406C23.278 22.6188 22.7644 23.1594 22.5903 23.8354H19.9172C19.6912 22.9578 18.8935 22.3088 17.9462 22.3088C16.9988 22.3088 16.2021 22.9568 15.9751 23.8339L15.6829 23.8334C15.4467 23.8334 15.2416 23.67 15.1886 23.4389C15.0283 22.7165 14.9331 21.9937 14.9035 21.2698C14.8923 20.9893 14.6551 20.7704 14.3746 20.7821C14.0936 20.7933 13.8752 21.0305 13.8864 21.3115C13.9185 22.0955 14.0213 22.8789 14.1954 23.6619L14.1959 23.6639C14.3532 24.3588 14.9707 24.8515 15.6834 24.8515C15.7272 24.8515 15.7725 24.8516 15.8192 24.8518C15.8691 24.8519 15.9207 24.852 15.9741 24.852C16.1996 25.7307 16.9973 26.3812 17.9462 26.3812C18.894 26.3812 19.6917 25.7317 19.9177 24.8536H22.5898C22.8163 25.7317 23.6135 26.3812 24.5614 26.3812C25.5097 26.3812 26.3069 25.7317 26.5334 24.8536H27.1092C27.9527 24.8536 28.6364 24.1699 28.6364 23.3264V21.4139C28.6364 20.8743 28.422 20.356 28.0402 19.9743L28.0264 19.9604C27.8304 19.7644 27.6024 19.5364 27.4075 19.342C27.0257 18.9597 26.508 18.7454 25.9679 18.7454H24.9737C24.9213 18.2862 24.8485 17.8347 24.7553 17.3949C24.7548 17.3923 24.7543 17.3893 24.7533 17.3867C24.5944 16.6949 23.979 16.2047 23.2694 16.2047C21.5106 16.2006 17.4366 16.2006 17.4366 16.2006C17.1556 16.2006 16.9275 16.4287 16.9275 16.7097C16.9275 16.9907 17.1556 17.2187 17.4366 17.2187C17.4366 17.2187 21.5091 17.2187 23.2678 17.2228H23.2694C23.5025 17.2228 23.7046 17.3821 23.7596 17.6082ZM18.9638 24.345C18.9638 23.783 18.5077 23.3269 17.9462 23.3269C17.3842 23.3269 16.9286 23.783 16.9286 24.345C16.9286 24.907 17.3842 25.3631 17.9462 25.3631C18.5077 25.3631 18.9638 24.907 18.9638 24.345ZM25.5795 24.345C25.5795 23.783 25.1234 23.3269 24.5614 23.3269C23.9999 23.3269 23.5438 23.783 23.5438 24.345C23.5438 24.907 23.9999 25.3631 24.5614 25.3631C25.1234 25.3631 25.5795 24.907 25.5795 24.345ZM27.1092 23.8354H26.5329C26.34 23.0876 25.7327 22.5053 24.9706 22.35C25.0684 21.4999 25.0969 20.6264 25.0557 19.7635H25.9679C26.2377 19.7635 26.4968 19.8709 26.6877 20.0618L26.6995 20.0736C26.8959 20.2701 27.1248 20.4989 27.3204 20.6941C27.5113 20.885 27.6183 21.1441 27.6183 21.4139V23.3264C27.6183 23.6079 27.3902 23.8354 27.1092 23.8354ZM16.4185 19.2539L18.4517 19.2544C18.7327 19.2544 18.9607 19.4825 18.9607 19.7635C18.9607 20.0445 18.7322 20.2726 18.4512 20.2726L16.4185 20.272C16.1375 20.272 15.9094 20.044 15.9094 19.763C15.9094 19.482 16.1375 19.2539 16.4185 19.2539ZM13.8732 19.2539L14.8878 19.2544C15.1688 19.2544 15.3968 19.4825 15.3968 19.7635C15.3968 20.0445 15.1682 20.2726 14.8872 20.2726L13.8727 20.272C13.5917 20.272 13.3636 20.044 13.3636 19.763C13.3641 19.482 13.5922 19.2539 13.8732 19.2539ZM15.9059 18.7459L13.8727 18.7454C13.5917 18.7454 13.3636 18.5173 13.3636 18.2363C13.3636 17.9553 13.5922 17.7273 13.8727 17.7273L15.9059 17.7278C16.1869 17.7278 16.4149 17.9558 16.4149 18.2368C16.4149 18.5178 16.1869 18.7459 15.9059 18.7459ZM18.4512 18.7459L17.4366 18.7454C17.1556 18.7454 16.9275 18.5173 16.9275 18.2363C16.9275 17.9553 17.1556 17.7273 17.4366 17.7273L18.4517 17.7278C18.7327 17.7278 18.9607 17.9558 18.9607 18.2368C18.9602 18.5178 18.7322 18.7459 18.4512 18.7459ZM15.9054 17.2182H14.8908C14.6098 17.2177 14.3818 16.9897 14.3818 16.7087C14.3823 16.4277 14.6103 16.1996 14.8913 16.2001H15.9059C16.1869 16.2006 16.4149 16.4287 16.4149 16.7097C16.4149 16.9907 16.1864 17.2187 15.9054 17.2182Z" fill="white"/>
</g>
<defs>
<linearGradient id="paint0_linear_2059_447621" x1="33" y1="-1.5" x2="4.18778" y2="-8.82082" gradientUnits="userSpaceOnUse">
<stop stop-color="#176CF7"/>
<stop offset="1" stop-color="#0C36C1"/>
</linearGradient>
<linearGradient id="paint1_linear_2059_447621" x1="42" y1="28.9998" x2="30.0608" y2="13.5992" gradientUnits="userSpaceOnUse">
<stop stop-color="#176CF7"/>
<stop offset="1" stop-color="#0C36C1"/>
</linearGradient>
<clipPath id="clip0_2059_447621">
<rect width="42" height="42" fill="white"/>
</clipPath>
</defs>
</svg>
