<svg width="24" height="24" viewBox="0 0 24 24" fill="none" xmlns="http://www.w3.org/2000/svg">
<path d="M12 22C11.4105 22 10.9335 21.5219 10.9335 20.9324V19.7933C10.2651 19.7014 9.61427 19.5225 8.98954 19.2584C8.06817 18.8692 7.24131 18.3112 6.53144 17.6013C5.82158 16.8914 5.26358 16.0634 4.87434 15.1432C4.59285 14.4765 4.40812 13.7812 4.32238 13.0665H3.06649C2.47699 13.0665 2 12.5884 2 12C2 11.4105 2.47699 10.9335 3.06649 10.9335H4.35892C4.45553 10.3121 4.62783 9.70662 4.87434 9.12341C5.26358 8.20205 5.82158 7.37518 6.53144 6.66532C7.24131 5.95433 8.06817 5.39746 8.98954 5.00709C9.61427 4.74303 10.2651 4.56408 10.9335 4.47216V3.06649C10.9335 2.47699 11.4105 2 12 2C12.5884 2 13.0665 2.47699 13.0665 3.06649V4.47221C13.7344 4.56414 14.3847 4.74308 15.0093 5.00709C15.9307 5.39746 16.7576 5.95433 17.4674 6.66532C18.1784 7.37518 18.7353 8.20205 19.1245 9.12341C19.3717 9.70662 19.5443 10.3121 19.641 10.9335H20.9324C21.5219 10.9335 22 11.4105 22 12C22 12.5884 21.5219 13.0665 20.9324 13.0665H19.6776C19.5918 13.7812 19.4068 14.4765 19.1245 15.1432C18.7353 16.0634 18.1784 16.8914 17.4674 17.6013C16.7576 18.3112 15.9307 18.8692 15.0093 19.2584C14.3847 19.5224 13.7344 19.7013 13.0665 19.7933V20.9324C13.0665 21.5219 12.5884 22 12 22ZM12 15.8666C12.5884 15.8666 13.0665 16.3436 13.0665 16.9331V18.1732C15.6393 17.7202 17.6648 15.6577 18.0625 13.0665H16.9331C16.3436 13.0665 15.8666 12.5884 15.8666 12C15.8666 11.4105 16.3436 10.9335 16.9331 10.9335H18.0156C17.5247 8.46798 15.5508 6.53063 13.0665 6.09332V7.06694C13.0665 7.6553 12.5884 8.13342 12 8.13342C11.4105 8.13342 10.9335 7.6553 10.9335 7.06694V6.09332C8.44923 6.53063 6.47527 8.46798 5.98443 10.9335H7.06694C7.6553 10.9335 8.13342 11.4105 8.13342 12C8.13342 12.5884 7.6553 13.0665 7.06694 13.0665H5.93754C6.33517 15.6577 8.36075 17.7202 10.9335 18.1732V16.9331C10.9335 16.3436 11.4105 15.8666 12 15.8666Z" fill="#176CF7"/>
</svg>
