<svg width="24" height="24" viewBox="0 0 24 24" fill="none" xmlns="http://www.w3.org/2000/svg">
<path d="M5.00068 19.2025V4.79749C4.99179 4.48349 5.07046 4.17297 5.22845 3.89852C5.38643 3.62407 5.61789 3.39582 5.89853 3.23773C6.17917 3.07964 6.49864 2.99754 6.8234 3.00006C7.14816 3.00257 7.46623 3.0896 7.74422 3.25201L20.1655 10.4837C20.4209 10.6384 20.6315 10.8534 20.7775 11.1084C20.9234 11.3635 21 11.6502 21 11.9417C21 12.2332 20.9234 12.5199 20.7775 12.7749C20.6315 13.03 20.4209 13.2449 20.1655 13.3997L7.74422 20.748C7.46623 20.9104 7.14816 20.9974 6.8234 20.9999C6.49864 21.0025 6.17917 20.9204 5.89853 20.7623C5.61789 20.6042 5.38643 20.3759 5.22845 20.1015C5.07046 19.827 4.99179 19.5165 5.00068 19.2025Z" fill="#176CF7" stroke="#176CF7" stroke-width="1.5" stroke-linecap="round" stroke-linejoin="round"/>
</svg>
