<svg width="29" height="28" viewBox="0 0 29 28" fill="none" xmlns="http://www.w3.org/2000/svg">
<g clip-path="url(#clip0_5329_366882)">
<path d="M12.167 16.3341C12.5472 16.7221 13.001 17.0304 13.5018 17.2408C14.0026 17.4513 14.5404 17.5597 15.0837 17.5597C15.6269 17.5597 16.1647 17.4513 16.6655 17.2408C17.1663 17.0304 17.6201 16.7221 18.0003 16.3341L22.667 11.6674C23.4405 10.8939 23.8751 9.84473 23.8751 8.75077C23.8751 7.6568 23.4405 6.60765 22.667 5.8341C21.8934 5.06055 20.8443 4.62598 19.7503 4.62598C18.6564 4.62598 17.6072 5.06055 16.8337 5.8341L16.2503 6.41743" stroke="#555555" stroke-width="1.75" stroke-linecap="round" stroke-linejoin="round"/>
<path d="M16.8331 11.668C16.4529 11.2799 15.9991 10.9717 15.4983 10.7612C14.9975 10.5508 14.4597 10.4424 13.9165 10.4424C13.3732 10.4424 12.8354 10.5508 12.3346 10.7612C11.8338 10.9717 11.38 11.2799 10.9998 11.668L6.33312 16.3346C5.55957 17.1082 5.125 18.1573 5.125 19.2513C5.125 20.3453 5.55957 21.3944 6.33312 22.168C7.10667 22.9415 8.15583 23.3761 9.24979 23.3761C10.3438 23.3761 11.3929 22.9415 12.1665 22.168L12.7498 21.5846" stroke="#555555" stroke-width="1.75" stroke-linecap="round" stroke-linejoin="round"/>
</g>
<defs>
<clipPath id="clip0_5329_366882">
<rect width="28" height="28" fill="white" transform="translate(0.5 0.000976562)"/>
</clipPath>
</defs>
</svg>
