<svg width="16" height="16" viewBox="0 0 16 16" fill="none" xmlns="http://www.w3.org/2000/svg">
<g clip-path="url(#clip0_10749_6537)">
<rect x="3" y="6" width="10" height="8" fill="#EF9892"/>
<mask id="path-2-inside-1_10749_6537" fill="white">
<path d="M6 9.5C6 9.22386 6.22386 9 6.5 9H9.5C9.77614 9 10 9.22386 10 9.5V14H6V9.5Z"/>
</mask>
<path d="M6 9.5C6 9.22386 6.22386 9 6.5 9H9.5C9.77614 9 10 9.22386 10 9.5V14H6V9.5Z" fill="#EC5241"/>
<path d="M5.6 9.5C5.6 9.00294 6.00294 8.6 6.5 8.6H9.5C9.99706 8.6 10.4 9.00294 10.4 9.5L9.6 9.5C9.6 9.44477 9.55523 9.4 9.5 9.4H6.5C6.44477 9.4 6.4 9.44477 6.4 9.5L5.6 9.5ZM10 14H6H10ZM5.6 14V9.5C5.6 9.00294 6.00294 8.6 6.5 8.6L6.5 9.4C6.44477 9.4 6.4 9.44477 6.4 9.5V14H5.6ZM9.5 8.6C9.99706 8.6 10.4 9.00294 10.4 9.5V14H9.6V9.5C9.6 9.44477 9.55523 9.4 9.5 9.4V8.6Z" fill="#BA2818" mask="url(#path-2-inside-1_10749_6537)"/>
<path d="M1.34203 7.20532L3.11395 2.49365H12.8068C12.8317 2.49489 12.8557 2.50299 12.8763 2.51707C12.8968 2.53115 12.9131 2.55065 12.9232 2.5734L14.6649 7.21815C14.6719 7.23679 14.6743 7.25688 14.6718 7.27664C14.6693 7.29641 14.6619 7.31526 14.6504 7.33154C14.639 7.34783 14.6236 7.36105 14.6059 7.37004C14.5881 7.37904 14.5684 7.38354 14.5484 7.38315H11.6701L9.83587 6.16032L8.00253 7.38224L6.1692 6.16032L4.33587 7.38224H1.45753C1.43607 7.3836 1.41463 7.37926 1.39538 7.36966C1.37614 7.36007 1.35977 7.34555 1.34795 7.32758C1.33613 7.30962 1.32927 7.28884 1.32807 7.26737C1.32687 7.2459 1.33229 7.22449 1.34203 7.20532Z" fill="#C50018"/>
</g>
<defs>
<clipPath id="clip0_10749_6537">
<rect width="16" height="16" fill="white"/>
</clipPath>
</defs>
</svg>
