<svg width="16" height="16" viewBox="0 0 16 16" fill="none" xmlns="http://www.w3.org/2000/svg">
<g clip-path="url(#clip0_2555_176171)">
<path d="M14.2744 10.2629V10.8791L9.34451 12.4197L5.03089 11.2488V12.1116H1.3335V5.33301H6.26335L10.084 6.75034C10.7002 6.99683 11.1932 7.67469 11.1932 8.41417H12.4257C13.4733 8.41417 14.2744 9.21527 14.2744 10.2629ZM3.79842 10.8791V6.56547H2.56596V10.8791H3.79842ZM12.9803 10.0164C12.857 9.76988 12.6722 9.64663 12.4257 9.64663H9.09802C8.7899 9.64663 8.42016 9.58501 8.11205 9.52339L6.69471 9.0304L7.06445 7.85956L8.54341 8.35254C8.72828 8.35254 9.96074 8.41417 9.96074 8.41417C9.96074 8.16767 9.83749 7.98281 9.591 7.92118L6.01686 6.56547H5.03089V9.95475L9.34451 11.1256L12.9803 10.0164Z" fill="#555555"/>
<g clip-path="url(#clip1_2555_176171)">
<path d="M11.3345 4.24384C11.5078 4.19995 11.6589 4.11849 11.7721 4.0007C11.9062 3.86108 11.9832 3.67424 11.9832 3.45002C11.9832 3.14122 11.8583 2.92391 11.6553 2.78678C11.4564 2.65234 11.1892 2.59935 10.9085 2.59935H10.0005H9.93382V2.66602V5.49802V5.56468H10.0005H10.3965H10.4632V5.49802V4.30468H10.7818L11.4826 5.53109L11.5018 5.56468H11.5405H12.0205H12.1392L12.0774 5.46333L11.3345 4.24384ZM12.8135 6.52468H12.8802V6.45802V5.38167C13.0404 5.53306 13.2656 5.61668 13.4935 5.61668C14.1198 5.61668 14.5162 5.13311 14.5162 4.54602C14.5162 3.95382 14.1068 3.48335 13.5015 3.48335C13.243 3.48335 13.0222 3.57873 12.8722 3.72487V3.60202V3.53535H12.8055H12.4375H12.3709V3.60202V6.45802V6.52468H12.4375H12.8135ZM10.8525 3.83935H10.4632V3.06868H10.8805C11.0476 3.06868 11.1923 3.09526 11.2932 3.1557C11.389 3.21311 11.4498 3.30334 11.4498 3.45002C11.4498 3.59669 11.389 3.68891 11.2898 3.74831C11.1854 3.81075 11.0336 3.83935 10.8525 3.83935ZM13.4295 3.92868C13.6161 3.92868 13.7553 4.00219 13.849 4.11345C13.9438 4.22607 13.9949 4.3811 13.9949 4.54602C13.9949 4.71096 13.9438 4.8671 13.8489 4.98078C13.7551 5.09307 13.6158 5.16735 13.4295 5.16735C13.0893 5.16735 12.8562 4.88453 12.8562 4.55002C12.8562 4.21497 13.0897 3.92868 13.4295 3.92868Z" fill="#555555" stroke="#555555" stroke-width="0.133333"/>
</g>
</g>
<defs>
<clipPath id="clip0_2555_176171">
<rect width="16" height="16" fill="white"/>
</clipPath>
<clipPath id="clip1_2555_176171">
<rect width="6" height="6" fill="white" transform="translate(8.66699 1.33301)"/>
</clipPath>
</defs>
</svg>
