<svg width="16" height="16" viewBox="0 0 16 16" fill="none" xmlns="http://www.w3.org/2000/svg">
<g clip-path="url(#clip0_2555_176161)">
<path d="M1.3335 2H2.00016C2.35378 2 2.69292 2.14048 2.94297 2.39052C3.19302 2.64057 3.3335 2.97971 3.3335 3.33333V10C3.3335 10.3536 3.47397 10.6928 3.72402 10.9428C3.97407 11.1929 4.31321 11.3333 4.66683 11.3333H14.6668" stroke="#555555" stroke-linecap="round" stroke-linejoin="round"/>
<path d="M10.6667 4H8C6.89543 4 6 4.89543 6 6V7.33333C6 8.4379 6.89543 9.33333 8 9.33333H10.6667C11.7712 9.33333 12.6667 8.4379 12.6667 7.33333V6C12.6667 4.89543 11.7712 4 10.6667 4Z" stroke="#555555" stroke-linecap="round" stroke-linejoin="round"/>
<path d="M5.99984 13.9997C6.73622 13.9997 7.33317 13.4027 7.33317 12.6663C7.33317 11.93 6.73622 11.333 5.99984 11.333C5.26346 11.333 4.6665 11.93 4.6665 12.6663C4.6665 13.4027 5.26346 13.9997 5.99984 13.9997Z" stroke="#555555" stroke-linecap="round" stroke-linejoin="round"/>
<path d="M11.9998 13.9997C12.7362 13.9997 13.3332 13.4027 13.3332 12.6663C13.3332 11.93 12.7362 11.333 11.9998 11.333C11.2635 11.333 10.6665 11.93 10.6665 12.6663C10.6665 13.4027 11.2635 13.9997 11.9998 13.9997Z" stroke="#555555" stroke-linecap="round" stroke-linejoin="round"/>
</g>
<defs>
<clipPath id="clip0_2555_176161">
<rect width="16" height="16" fill="white"/>
</clipPath>
</defs>
</svg>
