<svg width="24" height="24" viewBox="0 0 24 24" fill="none" xmlns="http://www.w3.org/2000/svg">
<g clip-path="url(#clip0_9796_25988)">
<rect x="4.5" y="9" width="15" height="12" fill="#EF9892"/>
<mask id="path-2-inside-1_9796_25988" fill="white">
<path d="M9 14.25C9 13.8358 9.33579 13.5 9.75 13.5H14.25C14.6642 13.5 15 13.8358 15 14.25V21H9V14.25Z"/>
</mask>
<path d="M9 14.25C9 13.8358 9.33579 13.5 9.75 13.5H14.25C14.6642 13.5 15 13.8358 15 14.25V21H9V14.25Z" fill="#EC5241"/>
<path d="M8.4 14.25C8.4 13.5044 9.00442 12.9 9.75 12.9H14.25C14.9956 12.9 15.6 13.5044 15.6 14.25H14.4C14.4 14.1672 14.3328 14.1 14.25 14.1H9.75C9.66716 14.1 9.6 14.1672 9.6 14.25H8.4ZM15 21H9H15ZM8.4 21V14.25C8.4 13.5044 9.00442 12.9 9.75 12.9V14.1C9.66716 14.1 9.6 14.1672 9.6 14.25V21H8.4ZM14.25 12.9C14.9956 12.9 15.6 13.5044 15.6 14.25V21H14.4V14.25C14.4 14.1672 14.3328 14.1 14.25 14.1V12.9Z" fill="#BA2818" mask="url(#path-2-inside-1_9796_25988)"/>
<path d="M2.01342 10.8077L4.67129 3.74023H19.2105C19.2479 3.74208 19.2839 3.75424 19.3148 3.77536C19.3456 3.79648 19.37 3.82573 19.3852 3.85986L21.9977 10.827C22.0082 10.8549 22.0118 10.8851 22.008 10.9147C22.0042 10.9444 21.9933 10.9726 21.976 10.9971C21.9588 11.0215 21.9358 11.0413 21.9092 11.0548C21.8825 11.0683 21.8529 11.0751 21.823 11.0745H17.5055L14.7542 9.24023L12.0042 11.0731L9.25417 9.24023L6.50417 11.0731H2.18667C2.15447 11.0752 2.12231 11.0686 2.09344 11.0543C2.06457 11.0399 2.04003 11.0181 2.0223 10.9911C2.00456 10.9642 1.99427 10.933 1.99247 10.9008C1.99067 10.8686 1.9988 10.8365 2.01342 10.8077Z" fill="#C50018"/>
</g>
<defs>
<clipPath id="clip0_9796_25988">
<rect width="24" height="24" fill="white"/>
</clipPath>
</defs>
</svg>
