<svg width="16" height="16" viewBox="0 0 16 16" fill="none" xmlns="http://www.w3.org/2000/svg">
<path d="M1.93945 13.9429L2.41812 12.2162C3.21126 9.38023 5.30281 7.94727 7.39378 7.94727" stroke="#555555" stroke-linecap="round" stroke-linejoin="round"/>
<path d="M7.39366 7.93511C9.06729 7.93511 10.424 6.59293 10.424 4.93728C10.424 3.28163 9.06729 1.93945 7.39366 1.93945C5.72003 1.93945 4.36328 3.28163 4.36328 4.93728C4.36328 6.59293 5.72003 7.93511 7.39366 7.93511Z" stroke="#555555" stroke-linecap="round" stroke-linejoin="bevel"/>
<path d="M8.49584 13.4712H8.24221C8.07191 13.4712 7.90859 13.4036 7.78817 13.2832C7.66775 13.1627 7.6001 12.9994 7.6001 12.8291V9.7759C7.6001 9.6056 7.66775 9.44228 7.78817 9.32186C7.90859 9.20144 8.07191 9.13379 8.24221 9.13379H11.3821C11.5524 9.13379 11.7157 9.20144 11.8362 9.32186C11.9566 9.44228 12.0242 9.6056 12.0242 9.7759V11.9944" stroke="#555555" stroke-width="0.8" stroke-linecap="round" stroke-linejoin="round"/>
<path d="M12.2666 10.3334L12.9067 10.3223C12.9642 10.3221 13.021 10.3351 13.0727 10.3601C13.1244 10.3851 13.1698 10.4216 13.2053 10.4667L13.9309 11.4299C14.0051 11.5292 14.0456 11.6495 14.0465 11.7734V13.3787C14.0465 13.3957 14.0397 13.4121 14.0277 13.4241C14.0156 13.4361 13.9993 13.4429 13.9823 13.4429H13.0031" stroke="#555555" stroke-width="0.8" stroke-linecap="round" stroke-linejoin="round"/>
<path d="M12.2587 14.1327C12.6559 14.1327 12.9779 13.8107 12.9779 13.4135C12.9779 13.0163 12.6559 12.6943 12.2587 12.6943C11.8615 12.6943 11.5396 13.0163 11.5396 13.4135C11.5396 13.8107 11.8615 14.1327 12.2587 14.1327Z" stroke="#555555" stroke-width="0.8" stroke-linecap="round" stroke-linejoin="round"/>
<path d="M9.21184 14.1327C9.60902 14.1327 9.931 13.8107 9.931 13.4135C9.931 13.0163 9.60902 12.6943 9.21184 12.6943C8.81465 12.6943 8.49268 13.0163 8.49268 13.4135C8.49268 13.8107 8.81465 14.1327 9.21184 14.1327Z" stroke="#555555" stroke-width="0.8" stroke-linecap="round" stroke-linejoin="round"/>
<path d="M11.5429 13.4551H9.93359" stroke="#555555" stroke-width="0.8" stroke-linecap="round" stroke-linejoin="round"/>
</svg>
