<svg width="85" height="17" viewBox="0 0 85 17" fill="none" xmlns="http://www.w3.org/2000/svg">
<path d="M30.2401 8.15199C30.2401 9.71488 29.7787 11.2427 28.9142 12.5422C28.0498 13.8417 26.821 14.8545 25.3835 15.4525C23.9459 16.0506 22.364 16.2071 20.838 15.9021C19.3119 15.5971 17.9101 14.8445 16.8099 13.7393C15.7096 12.6341 14.9604 11.2261 14.6569 9.69318C14.3535 8.1603 14.5094 6.57145 15.1049 5.12756C15.7005 3.68367 16.7089 2.4496 18.0027 1.5814C19.2966 0.713195 20.8177 0.249866 22.3737 0.25C23.4068 0.25 24.4298 0.454391 25.3843 0.851503C26.3388 1.24862 27.2061 1.83067 27.9366 2.56444C28.6671 3.29821 29.2466 4.16932 29.642 5.12803C30.0373 6.08674 30.2408 7.11429 30.2408 8.15199" fill="#FFC117"/>
<path d="M1.10872 4.27428C1.29156 4.27191 1.47196 4.31664 1.63269 4.4042C1.79343 4.49176 1.92916 4.61922 2.02692 4.77443C2.80076 4.35024 3.69089 4.19017 4.56318 4.31832C5.43548 4.44648 6.24268 4.85592 6.86314 5.48496C7.40994 4.92012 8.11049 4.52987 8.87706 4.36306C9.64364 4.19625 10.4422 4.2603 11.1727 4.54719C11.9032 4.83408 12.5332 5.33106 12.9838 5.97589C13.4344 6.62073 13.6857 7.38477 13.706 8.17234V11.8207C13.697 12.1079 13.5755 12.3799 13.3679 12.5777C13.1603 12.7754 12.8833 12.8828 12.5973 12.8766C12.4567 12.8794 12.3169 12.8543 12.186 12.8027C12.055 12.751 11.9356 12.674 11.8344 12.5759C11.7332 12.4778 11.6523 12.3605 11.5963 12.2309C11.5403 12.1013 11.5104 11.9619 11.5082 11.8207V8.17302C11.5082 7.69948 11.3209 7.24534 10.9875 6.91049C10.6541 6.57565 10.202 6.38754 9.73055 6.38754C9.2591 6.38754 8.80696 6.57565 8.47359 6.91049C8.14023 7.24534 7.95295 7.69948 7.95295 8.17302V11.8207C7.95075 11.9619 7.9208 12.1013 7.86482 12.2309C7.80885 12.3605 7.72794 12.4778 7.62674 12.5759C7.52555 12.674 7.40606 12.751 7.27514 12.8027C7.14422 12.8543 7.00443 12.8794 6.86382 12.8766C6.57755 12.8832 6.30027 12.7759 6.09237 12.5782C5.88446 12.3804 5.76275 12.1081 5.75374 11.8207V8.17302C5.75374 7.69948 5.56646 7.24534 5.23309 6.91049C4.89973 6.57565 4.44759 6.38754 3.97614 6.38754C3.50468 6.38754 3.05254 6.57565 2.71918 6.91049C2.38581 7.24534 2.19853 7.69948 2.19853 8.17302V11.8207C2.19633 11.9619 2.16639 12.1013 2.11041 12.2309C2.05443 12.3605 1.97352 12.4778 1.87233 12.5759C1.77113 12.674 1.65165 12.751 1.52072 12.8027C1.3898 12.8543 1.25002 12.8794 1.1094 12.8766C0.823244 12.883 0.546147 12.7757 0.338387 12.5779C0.130627 12.3802 0.00901269 12.108 0 11.8207V5.33159C0.00866386 5.04412 0.130032 4.77172 0.337683 4.5737C0.545335 4.37568 0.822457 4.26806 1.10872 4.27428Z" fill="white"/>
<path d="M31.0415 8.57616C31.0486 8.00369 31.1679 7.43824 31.3928 6.91215C31.6176 6.38607 31.9435 5.90968 32.3519 5.51024C32.7602 5.11081 33.243 4.79617 33.7725 4.58432C34.302 4.37248 34.868 4.2676 35.4379 4.27567C36.2393 4.27581 37.0256 4.49466 37.7128 4.90883C37.7985 4.71301 37.9411 4.54776 38.122 4.43478C38.3028 4.32179 38.5134 4.26633 38.7262 4.27567C38.8669 4.27279 39.0068 4.29786 39.1378 4.34943C39.2688 4.401 39.3883 4.47806 39.4896 4.57618C39.5909 4.6743 39.6718 4.79155 39.7278 4.92119C39.7839 5.05083 39.8138 5.19031 39.816 5.33162V11.8207C39.8138 11.962 39.7839 12.1015 39.7278 12.2311C39.6718 12.3608 39.5909 12.478 39.4896 12.5761C39.3883 12.6743 39.2688 12.7513 39.1378 12.8029C39.0068 12.8545 38.8669 12.8795 38.7262 12.8767C38.5134 12.886 38.3028 12.8305 38.122 12.7175C37.9411 12.6046 37.7985 12.4393 37.7128 12.2435C37.0256 12.6577 36.2393 12.8766 35.4379 12.8767C34.868 12.8847 34.302 12.7798 33.7725 12.568C33.243 12.3562 32.7602 12.0415 32.3519 11.6421C31.9435 11.2426 31.6176 10.7663 31.3928 10.2402C31.1679 9.71409 31.0486 9.14863 31.0415 8.57616ZM33.2394 8.57616C33.234 9.01178 33.3576 9.43917 33.5945 9.80411C33.8314 10.1691 34.1708 10.4551 34.5698 10.6259C34.9688 10.7968 35.4093 10.8447 35.8355 10.7637C36.2616 10.6826 36.6542 10.4763 36.9634 10.1708C37.2726 9.86526 37.4845 9.47438 37.5721 9.04772C37.6598 8.62107 37.6193 8.17787 37.4558 7.77437C37.2923 7.37086 37.0131 7.02524 36.6538 6.78136C36.2944 6.53747 35.8709 6.40632 35.4372 6.40454C35.1509 6.40194 34.8668 6.45608 34.6014 6.56385C34.3359 6.67163 34.0941 6.83092 33.89 7.03262C33.6859 7.23432 33.5233 7.47447 33.4117 7.73933C33.3 8.00418 33.2415 8.28855 33.2394 8.57616Z" fill="white"/>
<path d="M41.3062 8.97977V2.89312C41.3152 2.60589 41.4367 2.33384 41.6443 2.13611C41.8519 1.93838 42.1288 1.83095 42.4149 1.83717C42.5556 1.83429 42.6954 1.85936 42.8264 1.91093C42.9574 1.9625 43.077 2.03956 43.1782 2.13768C43.2795 2.2358 43.3605 2.35305 43.4165 2.48269C43.4725 2.61233 43.5025 2.75181 43.5047 2.89312V4.25717H44.881C45.0234 4.25206 45.1655 4.27584 45.2986 4.32708C45.4318 4.37833 45.5533 4.45599 45.6559 4.55543C45.7585 4.65487 45.8401 4.77405 45.8958 4.90586C45.9515 5.03768 45.9803 5.17942 45.9803 5.32262C45.9803 5.46583 45.9515 5.60757 45.8958 5.73938C45.8401 5.8712 45.7585 5.99038 45.6559 6.08982C45.5533 6.18926 45.4318 6.26692 45.2986 6.31816C45.1655 6.36941 45.0234 6.39318 44.881 6.38807H43.5047V8.98045C43.5083 9.45095 43.6974 9.90084 44.0305 10.2316C44.3637 10.5623 44.8139 10.7469 45.2823 10.7449H46.1039C46.2477 10.7376 46.3915 10.7598 46.5265 10.81C46.6615 10.8603 46.7849 10.9376 46.8893 11.0372C46.9936 11.1369 47.0767 11.2568 47.1335 11.3897C47.1903 11.5226 47.2195 11.6657 47.2195 11.8103C47.2195 11.955 47.1903 12.0981 47.1335 12.231C47.0767 12.3639 46.9936 12.4838 46.8893 12.5835C46.7849 12.6831 46.6615 12.7604 46.5265 12.8107C46.3915 12.8609 46.2477 12.8831 46.1039 12.8758H45.2823C44.7665 12.8822 44.2544 12.7864 43.7755 12.594C43.2965 12.4015 42.8599 12.1162 42.4908 11.7543C42.1216 11.3924 41.827 10.9609 41.6239 10.4846C41.4207 10.0084 41.313 9.49653 41.3068 8.97841" fill="white"/>
<path d="M44.6525 4.27588H38.667V6.37489H44.6525V4.27588Z" fill="white"/>
<path d="M18.396 7.89374C18.3985 7.75001 18.4291 7.60818 18.4862 7.47636C18.5432 7.34453 18.6256 7.2253 18.7286 7.12547C18.8315 7.02563 18.9531 6.94716 19.0863 6.89454C19.2194 6.84192 19.3616 6.81618 19.5047 6.81878C19.6468 6.81644 19.788 6.84251 19.92 6.89546C20.052 6.9484 20.1722 7.02718 20.2736 7.12721C20.375 7.22723 20.4556 7.34651 20.5107 7.4781C20.5658 7.60969 20.5943 7.75098 20.5945 7.89374V8.97955C20.5945 9.45309 20.7818 9.90723 21.1152 10.2421C21.4485 10.5769 21.9007 10.765 22.3721 10.765C22.8436 10.765 23.2957 10.5769 23.6291 10.2421C23.9625 9.90723 24.1497 9.45309 24.1497 8.97955V7.89374C24.1522 7.75001 24.1828 7.60818 24.2399 7.47636C24.297 7.34453 24.3793 7.2253 24.4823 7.12547C24.5853 7.02563 24.7068 6.94716 24.84 6.89454C24.9732 6.84192 25.1154 6.81618 25.2585 6.81878C25.4005 6.81654 25.5416 6.84267 25.6735 6.89565C25.8054 6.94864 25.9255 7.02743 26.0269 7.12745C26.1282 7.22747 26.2087 7.34671 26.2638 7.47826C26.3189 7.60981 26.3473 7.75104 26.3476 7.89374V8.97955C26.3241 10.0231 25.895 11.0159 25.1519 11.7456C24.4088 12.4752 23.411 12.8838 22.3718 12.8838C21.3326 12.8838 20.3347 12.4752 19.5917 11.7456C18.8486 11.0159 18.4195 10.0231 18.396 8.97955V7.89374Z" fill="white"/>
<path d="M20.6122 5.20993C20.6122 5.42992 20.5473 5.64497 20.4256 5.82788C20.3039 6.0108 20.1309 6.15336 19.9286 6.23754C19.7263 6.32173 19.5036 6.34376 19.2888 6.30084C19.074 6.25792 18.8767 6.15199 18.7218 5.99643C18.5669 5.84088 18.4615 5.64269 18.4187 5.42693C18.376 5.21117 18.3979 4.98753 18.4818 4.78428C18.5656 4.58104 18.7075 4.40733 18.8896 4.28511C19.0717 4.16289 19.2858 4.09766 19.5048 4.09766C19.7985 4.09766 20.0802 4.21484 20.2879 4.42344C20.4955 4.63203 20.6122 4.91494 20.6122 5.20993Z" fill="white"/>
<path d="M26.3495 5.20993C26.3495 5.42992 26.2846 5.64497 26.1629 5.82788C26.0412 6.0108 25.8683 6.15336 25.6659 6.23754C25.4636 6.32173 25.2409 6.34376 25.0261 6.30084C24.8113 6.25792 24.614 6.15199 24.4591 5.99643C24.3042 5.84088 24.1988 5.64269 24.156 5.42693C24.1133 5.21117 24.1352 4.98753 24.2191 4.78428C24.3029 4.58104 24.4448 4.40733 24.6269 4.28511C24.809 4.16289 25.0231 4.09766 25.2421 4.09766C25.5358 4.09766 25.8175 4.21484 26.0252 4.42344C26.2328 4.63203 26.3495 4.91494 26.3495 5.20993Z" fill="white"/>
<path d="M18.396 7.89374C18.3985 7.75001 18.4291 7.60818 18.4862 7.47636C18.5432 7.34453 18.6256 7.2253 18.7286 7.12547C18.8315 7.02563 18.9531 6.94716 19.0863 6.89454C19.2194 6.84192 19.3616 6.81618 19.5047 6.81878C19.6468 6.81644 19.788 6.84251 19.92 6.89546C20.052 6.9484 20.1722 7.02718 20.2736 7.12721C20.375 7.22723 20.4556 7.34651 20.5107 7.4781C20.5658 7.60969 20.5943 7.75098 20.5945 7.89374V8.97955C20.5945 9.45309 20.7818 9.90723 21.1152 10.2421C21.4485 10.5769 21.9007 10.765 22.3721 10.765C22.8436 10.765 23.2957 10.5769 23.6291 10.2421C23.9625 9.90723 24.1497 9.45309 24.1497 8.97955V7.89374C24.1522 7.75001 24.1828 7.60818 24.2399 7.47636C24.297 7.34453 24.3793 7.2253 24.4823 7.12547C24.5853 7.02563 24.7068 6.94716 24.84 6.89454C24.9732 6.84192 25.1154 6.81618 25.2585 6.81878C25.4005 6.81654 25.5416 6.84267 25.6735 6.89565C25.8054 6.94864 25.9255 7.02743 26.0269 7.12745C26.1282 7.22747 26.2087 7.34671 26.2638 7.47826C26.3189 7.60981 26.3473 7.75104 26.3476 7.89374V8.97955C26.3241 10.0231 25.895 11.0159 25.1519 11.7456C24.4088 12.4752 23.411 12.8838 22.3718 12.8838C21.3326 12.8838 20.3347 12.4752 19.5917 11.7456C18.8486 11.0159 18.4195 10.0231 18.396 8.97955V7.89374Z" fill="#176CF7"/>
<path d="M20.6122 5.20993C20.6122 5.42992 20.5473 5.64497 20.4256 5.82788C20.3039 6.0108 20.1309 6.15336 19.9286 6.23754C19.7263 6.32173 19.5036 6.34376 19.2888 6.30084C19.074 6.25792 18.8767 6.15199 18.7218 5.99643C18.5669 5.84088 18.4615 5.64269 18.4187 5.42693C18.376 5.21117 18.3979 4.98753 18.4818 4.78428C18.5656 4.58104 18.7075 4.40733 18.8896 4.28511C19.0717 4.16289 19.2858 4.09766 19.5048 4.09766C19.7985 4.09766 20.0802 4.21484 20.2879 4.42344C20.4955 4.63203 20.6122 4.91494 20.6122 5.20993Z" fill="#176CF7"/>
<path d="M26.3495 5.20993C26.3495 5.42992 26.2846 5.64497 26.1629 5.82788C26.0412 6.0108 25.8683 6.15336 25.6659 6.23754C25.4636 6.32173 25.2409 6.34376 25.0261 6.30084C24.8113 6.25792 24.614 6.15199 24.4591 5.99643C24.3042 5.84088 24.1988 5.64269 24.156 5.42693C24.1133 5.21117 24.1352 4.98753 24.2191 4.78428C24.3029 4.58104 24.4448 4.40733 24.6269 4.28511C24.809 4.16289 25.0231 4.09766 25.2421 4.09766C25.5358 4.09766 25.8175 4.21484 26.0252 4.42344C26.2328 4.63203 26.3495 4.91494 26.3495 5.20993Z" fill="#176CF7"/>
<path d="M49.9928 8.66742C49.9928 8.96082 50.048 9.23249 50.1586 9.48243C50.2692 9.73236 50.4184 9.95513 50.6063 10.1507C50.8053 10.3355 51.032 10.4822 51.2863 10.5908C51.5405 10.6995 51.8169 10.7538 52.1154 10.7538C52.4139 10.7538 52.6903 10.6995 52.9446 10.5908C53.1989 10.4822 53.42 10.3355 53.6079 10.1507C53.8069 9.95513 53.9617 9.73236 54.0722 9.48243C54.1828 9.23249 54.2381 8.96082 54.2381 8.66742C54.2381 8.37402 54.1828 8.10235 54.0722 7.85242C53.9617 7.60249 53.8069 7.38515 53.6079 7.20042C53.42 7.00482 53.1989 6.85268 52.9446 6.74402C52.6903 6.63535 52.4139 6.58102 52.1154 6.58102C51.8169 6.58102 51.5405 6.63535 51.2863 6.74402C51.032 6.85268 50.8053 7.00482 50.6063 7.20042C50.4184 7.38515 50.2692 7.60249 50.1586 7.85242C50.048 8.10235 49.9928 8.37402 49.9928 8.66742ZM47.8701 8.66742C47.8701 8.09149 47.9807 7.55359 48.2018 7.05372C48.4229 6.54298 48.7269 6.09745 49.1139 5.71711C49.5008 5.33678 49.9485 5.03795 50.4571 4.82061C50.9767 4.60328 51.5295 4.49461 52.1154 4.49461C52.7014 4.49461 53.2486 4.60328 53.7572 4.82061C54.2768 5.03795 54.73 5.33678 55.117 5.71711C55.5039 6.09745 55.8079 6.54298 56.0291 7.05372C56.2502 7.55359 56.3607 8.09149 56.3607 8.66742C56.3607 9.24336 56.2502 9.78669 56.0291 10.2974C55.8079 10.7973 55.5039 11.2374 55.117 11.6177C54.73 11.9981 54.2768 12.2969 53.7572 12.5142C53.2486 12.7316 52.7014 12.8402 52.1154 12.8402C51.3305 12.8402 50.6229 12.6555 49.9928 12.286V14.9266C49.9928 15.2092 49.8877 15.4537 49.6777 15.6601C49.4676 15.8666 49.2189 15.9698 48.9314 15.9698C48.644 15.9698 48.3953 15.8666 48.1852 15.6601C47.9751 15.4537 47.8701 15.2092 47.8701 14.9266V8.66742Z" fill="white"/>
<path d="M56.8874 8.66742C56.8874 8.09149 56.9979 7.55359 57.219 7.05372C57.4401 6.54298 57.7442 6.09745 58.1311 5.71711C58.518 5.33678 58.9658 5.03795 59.4743 4.82061C59.9939 4.60328 60.5467 4.49461 61.1327 4.49461C61.7186 4.49461 62.2658 4.60328 62.7744 4.82061C63.294 5.03795 63.7473 5.33678 64.1342 5.71711C64.5212 6.09745 64.8252 6.54298 65.0463 7.05372C65.2674 7.55359 65.378 8.09149 65.378 8.66742V11.797C65.378 12.0796 65.2729 12.3241 65.0629 12.5305C64.8528 12.737 64.6041 12.8402 64.3166 12.8402C64.0955 12.8402 63.8965 12.7859 63.7196 12.6772C63.5538 12.5577 63.4267 12.4056 63.3382 12.2208C63.0176 12.4164 62.6694 12.5686 62.2935 12.6772C61.9287 12.7859 61.5417 12.8402 61.1327 12.8402C60.5467 12.8402 59.9939 12.7316 59.4743 12.5142C58.9658 12.2969 58.518 11.9981 58.1311 11.6177C57.7442 11.2374 57.4401 10.7973 57.219 10.2974C56.9979 9.78669 56.8874 9.24336 56.8874 8.66742ZM59.01 8.66742C59.01 8.96082 59.0653 9.23249 59.1758 9.48243C59.2864 9.73236 59.4356 9.95513 59.6236 10.1507C59.8226 10.3355 60.0492 10.4822 60.3035 10.5908C60.5578 10.6995 60.8342 10.7538 61.1327 10.7538C61.4312 10.7538 61.7075 10.6995 61.9618 10.5908C62.2161 10.4822 62.4372 10.3355 62.6251 10.1507C62.8241 9.95513 62.9789 9.73236 63.0895 9.48243C63.2 9.23249 63.2553 8.96082 63.2553 8.66742C63.2553 8.37402 63.2 8.10235 63.0895 7.85242C62.9789 7.60249 62.8241 7.38515 62.6251 7.20042C62.4372 7.00482 62.2161 6.85268 61.9618 6.74402C61.7075 6.63535 61.4312 6.58102 61.1327 6.58102C60.8342 6.58102 60.5578 6.63535 60.3035 6.74402C60.0492 6.85268 59.8226 7.00482 59.6236 7.20042C59.4356 7.38515 59.2864 7.60249 59.1758 7.85242C59.0653 8.10235 59.01 8.37402 59.01 8.66742Z" fill="white"/>
<path d="M70.4152 4.49461C70.7027 4.49461 70.9514 4.59784 71.1615 4.80431C71.3715 5.01078 71.4766 5.25528 71.4766 5.53781C71.4766 5.82035 71.3715 6.06485 71.1615 6.27132C70.9514 6.47778 70.7027 6.58102 70.4152 6.58102C70.1167 6.58102 69.8403 6.63535 69.5861 6.74402C69.3318 6.85268 69.1052 7.00482 68.9062 7.20042C68.7182 7.38515 68.569 7.60249 68.4584 7.85242C68.3479 8.10235 68.2926 8.37402 68.2926 8.66742V11.797C68.2926 12.0796 68.1876 12.3241 67.9775 12.5305C67.7674 12.737 67.5187 12.8402 67.2313 12.8402C66.9438 12.8402 66.6951 12.737 66.485 12.5305C66.275 12.3241 66.1699 12.0796 66.1699 11.797V8.66742C66.1699 8.09149 66.2805 7.55359 66.5016 7.05372C66.7227 6.54298 67.0267 6.09745 67.4137 5.71711C67.8006 5.33678 68.2484 5.03795 68.7569 4.82061C69.2765 4.60328 69.8293 4.49461 70.4152 4.49461Z" fill="white"/>
<path d="M75.7146 10.7538C76.002 10.7538 76.2508 10.8571 76.4608 11.0635C76.6709 11.27 76.7759 11.5145 76.7759 11.797C76.7759 12.0796 76.6709 12.3241 76.4608 12.5305C76.2508 12.737 76.002 12.8402 75.7146 12.8402H75.1839C74.7417 12.8402 74.3271 12.7587 73.9402 12.5957C73.5533 12.4327 73.2161 12.21 72.9286 11.9274C72.6412 11.6449 72.4145 11.3135 72.2487 10.9331C72.0829 10.5528 72 10.1453 72 9.71063V3.45141C72 3.16887 72.105 2.92437 72.315 2.7179C72.5251 2.51144 72.7738 2.4082 73.0613 2.4082C73.3487 2.4082 73.5975 2.51144 73.8075 2.7179C74.0176 2.92437 74.1226 3.16887 74.1226 3.45141V4.49461H75.7146C76.002 4.49461 76.2508 4.59784 76.4608 4.80431C76.6709 5.01078 76.7759 5.25528 76.7759 5.53781C76.7759 5.82035 76.6709 6.06485 76.4608 6.27132C76.2508 6.47778 76.002 6.58102 75.7146 6.58102H74.1226V9.71063C74.1226 9.99316 74.2276 10.2377 74.4377 10.4441C74.6477 10.6506 74.8965 10.7538 75.1839 10.7538H75.7146Z" fill="white"/>
<path d="M82.3468 10.7538C82.5016 10.7538 82.6288 10.7049 82.7283 10.6071C82.8278 10.5093 82.8775 10.3844 82.8775 10.2322C82.8775 10.0801 82.8278 9.95513 82.7283 9.85733C82.6288 9.75953 82.5016 9.71063 82.3468 9.71063H80.2242C79.8594 9.71063 79.5166 9.64543 79.196 9.51503C78.8754 9.37376 78.5935 9.18359 78.3503 8.94452C78.1071 8.70546 77.9136 8.42836 77.7699 8.11322C77.6372 7.79809 77.5709 7.46122 77.5709 7.10262C77.5709 6.74402 77.6372 6.40715 77.7699 6.09202C77.9136 5.77688 78.1071 5.49978 78.3503 5.26071C78.5935 5.02165 78.8754 4.83691 79.196 4.70651C79.5166 4.56524 79.8594 4.49461 80.2242 4.49461H83.4082C83.6956 4.49461 83.9444 4.59784 84.1544 4.80431C84.3645 5.01078 84.4695 5.25528 84.4695 5.53781C84.4695 5.82035 84.3645 6.06485 84.1544 6.27132C83.9444 6.47778 83.6956 6.58102 83.4082 6.58102H80.2242C80.0694 6.58102 79.9423 6.62992 79.8428 6.72772C79.7433 6.82552 79.6935 6.95048 79.6935 7.10262C79.6935 7.25475 79.7433 7.37972 79.8428 7.47752C79.9423 7.57532 80.0694 7.62422 80.2242 7.62422H82.3468C82.7117 7.62422 83.0544 7.69485 83.375 7.83612C83.6956 7.96652 83.9775 8.15126 84.2207 8.39032C84.464 8.62939 84.6519 8.90649 84.7846 9.22162C84.9283 9.53676 85.0002 9.87363 85.0002 10.2322C85.0002 10.5908 84.9283 10.9277 84.7846 11.2428C84.6519 11.558 84.464 11.8351 84.2207 12.0741C83.9775 12.3132 83.6956 12.5034 83.375 12.6446C83.0544 12.775 82.7117 12.8402 82.3468 12.8402H78.6322C78.3448 12.8402 78.096 12.737 77.886 12.5305C77.6759 12.3241 77.5709 12.0796 77.5709 11.797C77.5709 11.5145 77.6759 11.27 77.886 11.0635C78.096 10.8571 78.3448 10.7538 78.6322 10.7538H82.3468Z" fill="white"/>
</svg>
