<svg width="782" height="40" viewBox="0 0 782 40" fill="none" xmlns="http://www.w3.org/2000/svg">
<rect x="0.5" y="0.5" width="781" height="39" rx="5.5" fill="white"/>
<rect x="0.5" y="0.5" width="781" height="39" rx="5.5" stroke="#C4C4C4"/>
<path d="M21.5046 25.1286H20.7957C20.3195 25.1286 19.8627 24.9394 19.526 24.6027C19.1892 24.2659 19 23.8092 19 23.3329V14.7957C19 14.3195 19.1892 13.8627 19.526 13.526C19.8627 13.1892 20.3195 13 20.7957 13H29.5719C29.8077 13 30.0412 13.0464 30.2591 13.1367C30.477 13.2269 30.6749 13.3592 30.8417 13.526C31.0084 13.6927 31.1407 13.8907 31.2309 14.1085C31.3212 14.3264 31.3676 14.5599 31.3676 14.7957V20.9984" stroke="#555555" stroke-width="1.5" stroke-linecap="round" stroke-linejoin="round"/>
<path d="M31.3438 16.3223H33.8416C34.0023 16.3221 34.1609 16.3585 34.3054 16.4287C34.45 16.4988 34.5767 16.601 34.676 16.7273L36.7013 19.4209C36.9086 19.6982 37.0217 20.0346 37.0239 20.3809V24.8689C37.0239 24.9165 37.005 24.9622 36.9713 24.9959C36.9377 25.0295 36.892 25.0485 36.8444 25.0485H34.1116" stroke="#555555" stroke-width="1.5" stroke-linecap="round" stroke-linejoin="round"/>
<path d="M32.026 26.9788C33.1364 26.9788 34.0365 26.0787 34.0365 24.9684C34.0365 23.8581 33.1364 22.958 32.026 22.958C30.9157 22.958 30.0156 23.8581 30.0156 24.9684C30.0156 26.0787 30.9157 26.9788 32.026 26.9788Z" stroke="#555555" stroke-width="1.5" stroke-linecap="round" stroke-linejoin="round"/>
<path d="M23.5065 26.9788C24.6168 26.9788 25.5169 26.0787 25.5169 24.9684C25.5169 23.8581 24.6168 22.958 23.5065 22.958C22.3962 22.958 21.4961 23.8581 21.4961 24.9684C21.4961 26.0787 22.3962 26.9788 23.5065 26.9788Z" stroke="#555555" stroke-width="1.5" stroke-linecap="round" stroke-linejoin="round"/>
<path d="M30.0234 25.083H25.418" stroke="#555555" stroke-width="1.5" stroke-linecap="round" stroke-linejoin="round"/>
<path d="M49.032 24V15.504H51.624C53.46 15.504 54.66 16.212 54.66 17.868C54.66 19.572 53.328 20.268 51.564 20.268H50.22V24H49.032ZM50.22 16.512V19.26H51.48C52.644 19.26 53.46 18.876 53.46 17.868C53.46 16.848 52.62 16.512 51.504 16.512H50.22ZM56.9558 18.312V24H55.8278V18.312H56.9558ZM57.1478 16.26C57.1478 16.668 56.7998 16.98 56.3918 16.98C55.9838 16.98 55.6478 16.656 55.6478 16.26C55.6478 15.852 55.9838 15.528 56.3918 15.528C56.7998 15.528 57.1478 15.84 57.1478 16.26ZM60.0732 14.928V24H58.9452V14.928H60.0732ZM63.1784 18.312V24H62.0504V18.312H63.1784ZM63.3704 16.26C63.3704 16.668 63.0224 16.98 62.6144 16.98C62.2064 16.98 61.8704 16.656 61.8704 16.26C61.8704 15.852 62.2064 15.528 62.6144 15.528C63.0224 15.528 63.3704 15.84 63.3704 16.26ZM66.2959 19.176H66.3199C66.5839 18.612 67.3039 18.156 68.1199 18.156C69.5839 18.156 70.2439 19.2 70.2439 20.472V24H69.1159V20.856C69.1159 19.932 68.8759 19.116 67.8319 19.116C66.9439 19.116 66.2959 19.86 66.2959 20.988V24H65.1679V14.928H66.2959V19.176ZM83.7797 19.74C83.7797 22.356 81.8597 24.216 79.2677 24.216C76.6877 24.216 74.7797 22.356 74.7797 19.74C74.7797 17.088 76.6877 15.288 79.2677 15.288C81.8597 15.288 83.7797 17.088 83.7797 19.74ZM82.4957 19.74C82.4957 17.88 81.2477 16.332 79.2677 16.332C77.3117 16.332 76.0637 17.88 76.0637 19.74C76.0637 21.636 77.3237 23.148 79.2677 23.148C81.2357 23.148 82.4957 21.636 82.4957 19.74ZM86.4633 23.148V26.88H85.3353V18.312H86.4393V19.2H86.4753C86.8473 18.6 87.5913 18.156 88.5273 18.156C90.2193 18.156 91.3713 19.464 91.3713 21.144C91.3713 22.812 90.2553 24.156 88.5033 24.156C87.6993 24.156 86.9193 23.784 86.4993 23.148H86.4633ZM90.2073 21.144C90.2073 20.076 89.5473 19.092 88.3113 19.092C87.1593 19.092 86.3913 20.064 86.3913 21.156C86.3913 22.248 87.1593 23.208 88.3113 23.208C89.5473 23.208 90.2073 22.212 90.2073 21.144ZM96.7928 19.092L96.0128 19.752C95.7608 19.344 95.2688 19.044 94.6928 19.044C94.1768 19.044 93.6368 19.248 93.6368 19.788C93.6368 20.268 94.0688 20.448 94.9328 20.64C96.0128 20.88 96.8408 21.324 96.8408 22.32C96.8408 23.664 95.7248 24.156 94.5728 24.156C93.7088 24.156 92.8208 23.82 92.2808 23.136L93.0848 22.452C93.3848 22.896 93.9608 23.244 94.5968 23.244C95.1608 23.244 95.7248 23.04 95.7248 22.416C95.7248 21.888 95.2088 21.696 94.2368 21.468C93.4808 21.288 92.5808 20.964 92.5808 19.896C92.5808 18.672 93.6488 18.156 94.7288 18.156C95.5328 18.156 96.3848 18.48 96.7928 19.092ZM99.4128 18.312V24H98.2848V18.312H99.4128ZM99.6048 16.26C99.6048 16.668 99.2568 16.98 98.8488 16.98C98.4408 16.98 98.1048 16.656 98.1048 16.26C98.1048 15.852 98.4408 15.528 98.8488 15.528C99.2568 15.528 99.6048 15.84 99.6048 16.26ZM104.438 24V15.504H107.03C108.866 15.504 110.066 16.212 110.066 17.868C110.066 19.572 108.734 20.268 106.97 20.268H105.626V24H104.438ZM105.626 16.512V19.26H106.886C108.05 19.26 108.866 18.876 108.866 17.868C108.866 16.848 108.026 16.512 106.91 16.512H105.626ZM111.51 20.652H114.894C114.87 19.752 114.342 19.044 113.298 19.044C112.326 19.044 111.582 19.764 111.51 20.652ZM116.034 21.108C116.034 21.228 116.034 21.36 116.022 21.492H111.51C111.546 22.464 112.362 23.22 113.358 23.22C114.126 23.22 114.69 22.836 115.014 22.356L115.806 22.992C115.194 23.784 114.366 24.156 113.358 24.156C111.63 24.156 110.358 22.956 110.358 21.168C110.358 19.392 111.63 18.156 113.298 18.156C114.978 18.156 116.034 19.296 116.034 21.108ZM117.561 18.312H118.629C118.653 18.6 118.677 19.008 118.677 19.248H118.713C118.989 18.636 119.745 18.156 120.561 18.156C122.025 18.156 122.685 19.2 122.685 20.472V24H121.557V20.844C121.557 19.92 121.305 19.104 120.261 19.104C119.373 19.104 118.737 19.848 118.737 20.976V24H117.609V19.536C117.609 19.236 117.597 18.684 117.561 18.312ZM124.317 25.848L125.037 24.972C125.529 25.524 126.333 25.896 127.113 25.896C128.613 25.896 129.117 24.972 129.117 23.796V23.064H129.093C128.673 23.7 127.893 24.048 127.089 24.048C125.349 24.048 124.221 22.752 124.221 21.12C124.221 19.488 125.337 18.156 127.077 18.156C127.893 18.156 128.697 18.516 129.129 19.224H129.153V18.312H130.245V23.712C130.245 25.368 129.465 26.88 127.101 26.88C126.117 26.88 125.025 26.496 124.317 25.848ZM125.385 21.096C125.385 22.14 126.081 23.1 127.269 23.1C128.433 23.1 129.201 22.224 129.201 21.096C129.201 20.016 128.421 19.092 127.269 19.092C126.081 19.092 125.385 20.004 125.385 21.096ZM133.315 18.312V24H132.187V18.312H133.315ZM133.507 16.26C133.507 16.668 133.159 16.98 132.751 16.98C132.343 16.98 132.007 16.656 132.007 16.26C132.007 15.852 132.343 15.528 132.751 15.528C133.159 15.528 133.507 15.84 133.507 16.26ZM135.281 19.536C135.281 19.236 135.269 18.684 135.233 18.312H136.301C136.325 18.6 136.349 19.032 136.349 19.272H136.385C136.697 18.612 137.357 18.156 138.125 18.156C138.281 18.156 138.437 18.168 138.569 18.204L138.521 19.248C138.377 19.212 138.185 19.188 138.005 19.188C136.925 19.188 136.409 20.064 136.409 21.012V24H135.281V19.536ZM140.768 18.312V24H139.64V18.312H140.768ZM140.96 16.26C140.96 16.668 140.612 16.98 140.204 16.98C139.796 16.98 139.46 16.656 139.46 16.26C139.46 15.852 139.796 15.528 140.204 15.528C140.612 15.528 140.96 15.84 140.96 16.26ZM143.838 19.248C144.126 18.648 144.786 18.156 145.65 18.156C146.406 18.156 147.066 18.492 147.414 19.296C147.798 18.564 148.542 18.156 149.346 18.156C150.81 18.156 151.47 19.2 151.47 20.472V24H150.342V20.844C150.342 19.92 150.066 19.104 149.082 19.104C148.05 19.104 147.642 20.04 147.642 20.928V24H146.514V20.616C146.514 19.728 146.214 19.104 145.314 19.104C144.486 19.104 143.862 19.848 143.862 20.976V24H142.734V19.536C142.734 19.236 142.722 18.684 142.686 18.312H143.754C143.778 18.6 143.802 19.008 143.802 19.248H143.838ZM156.914 20.472V20.316C156.914 19.476 156.35 19.068 155.51 19.068C154.874 19.068 154.274 19.344 153.89 19.728L153.29 19.008C153.842 18.48 154.694 18.156 155.618 18.156C157.25 18.156 157.994 19.128 157.994 20.388V22.872C157.994 23.256 158.018 23.724 158.078 24H157.058C156.998 23.748 156.962 23.448 156.962 23.184H156.926C156.518 23.796 155.87 24.144 155.018 24.144C154.118 24.144 152.954 23.7 152.954 22.392C152.954 20.676 154.994 20.472 156.914 20.472ZM156.914 21.288H156.638C155.522 21.288 154.106 21.408 154.106 22.368C154.106 23.04 154.706 23.256 155.27 23.256C156.326 23.256 156.914 22.548 156.914 21.588V21.288ZM159.83 18.312H160.898C160.922 18.6 160.946 19.008 160.946 19.248H160.982C161.258 18.636 162.014 18.156 162.83 18.156C164.294 18.156 164.954 19.2 164.954 20.472V24H163.826V20.844C163.826 19.92 163.574 19.104 162.53 19.104C161.642 19.104 161.006 19.848 161.006 20.976V24H159.878V19.536C159.878 19.236 159.866 18.684 159.83 18.312Z" fill="black"/>
<path d="M748 17L753.181 22.6035C753.417 22.8575 753.736 23 754.069 23C754.402 23 754.722 22.8575 754.958 22.6035L760 17.15" stroke="#555555" stroke-width="1.5" stroke-linecap="round" stroke-linejoin="bevel"/>
</svg>
