<svg width="20" height="21" viewBox="0 0 20 21" fill="none" xmlns="http://www.w3.org/2000/svg">
<path d="M10 20.5C15.5228 20.5 20 16.0228 20 10.5C20 4.97715 15.5228 0.5 10 0.5C4.47715 0.5 0 4.97715 0 10.5C0 16.0228 4.47715 20.5 10 20.5Z" fill="white"/>
<path d="M6.16587 14.3258C6.11334 14.2714 6.07162 14.2065 6.04314 14.1349C6.01467 14.0632 6 13.9864 6 13.9087C6 13.8311 6.01467 13.7542 6.04314 13.6826C6.07162 13.611 6.11334 13.5461 6.16587 13.4916L9.18942 10.3829L6.16587 7.44752C6.11403 7.3979 6.07261 7.33741 6.04426 7.26992C6.01591 7.20244 6.00127 7.12946 6.00127 7.05567C6.00127 6.98188 6.01591 6.9089 6.04426 6.84142C6.07261 6.77393 6.11403 6.71344 6.16587 6.66382C6.27638 6.55839 6.42015 6.5 6.56923 6.5C6.71832 6.5 6.86208 6.55839 6.97259 6.66382L9.99779 9.59923L13.0263 6.66469C13.1371 6.55913 13.2811 6.50069 13.4305 6.50069C13.5799 6.50069 13.7239 6.55913 13.8347 6.66469C13.8872 6.71416 13.9291 6.77485 13.9576 6.84272C13.9861 6.91059 14.0005 6.98407 14 7.05828C14 7.13241 13.9853 7.20572 13.9569 7.27351C13.9284 7.3413 13.8868 7.40205 13.8347 7.45188L10.8012 10.3847L13.8314 13.4899C13.8835 13.5444 13.925 13.6092 13.9532 13.6807C13.9815 13.7521 13.9961 13.8287 13.9961 13.9061C13.9961 13.9835 13.9815 14.0602 13.9532 14.1316C13.925 14.203 13.8835 14.2679 13.8314 14.3224C13.7233 14.4335 13.5782 14.4958 13.4272 14.4958C13.2761 14.4958 13.1311 14.4335 13.023 14.3224L9.99779 11.2154L6.97259 14.3258C6.86504 14.4369 6.72064 14.4993 6.57006 14.5C6.41891 14.4998 6.27384 14.4373 6.16587 14.3258Z" fill="#C22716"/>
</svg>
